<svg width="513" height="339" viewBox="0 0 513 339" fill="none" xmlns="http://www.w3.org/2000/svg">
<path fill-rule="evenodd" clip-rule="evenodd" d="M257.302 309.841C254.445 317.354 244.665 320.621 235.482 317.128C226.298 313.636 221.16 304.697 224.018 297.183C226.875 289.67 236.655 286.404 245.838 289.896C255.021 293.388 260.159 302.327 257.302 309.841Z" fill="white"/>
<path fill-rule="evenodd" clip-rule="evenodd" d="M220.912 324.083C217.737 332.431 208.377 336.634 200.029 333.459C191.681 330.284 187.478 320.924 190.653 312.576C193.828 304.228 203.188 300.026 211.536 303.2C219.884 306.375 224.086 315.735 220.912 324.083Z" fill="white"/>
<path d="M220.214 192.877C251.133 198.512 256.128 304.261 233.043 315.31C203.103 329.639 156.79 258.783 153.599 231.882C150.754 207.906 192.064 187.746 220.214 192.877Z" stroke="#6B2000" stroke-width="42.3124" stroke-linejoin="round"/>
<path d="M220.214 192.877C251.133 198.512 256.128 304.261 233.043 315.31C203.103 329.639 156.79 258.783 153.599 231.882C150.754 207.906 192.064 187.746 220.214 192.877Z" stroke="#6B2000" stroke-width="3.99936" stroke-linejoin="round"/>
<path d="M314.624 183.17C333.734 181.461 375.866 193.324 397.022 203.771C418.179 214.218 350.651 311.417 324.439 308.072C298.228 304.726 295.514 184.879 314.624 183.17Z" stroke="#6B2000" stroke-width="45.4346" stroke-linejoin="round"/>
<path d="M314.624 183.17C333.734 181.461 375.866 193.324 397.022 203.771C418.179 214.218 350.651 311.417 324.439 308.072C298.228 304.726 295.514 184.879 314.624 183.17Z" stroke="#6B2000" stroke-width="3.99936" stroke-linejoin="round"/>
<path fill-rule="evenodd" clip-rule="evenodd" d="M314.624 183.17C333.734 181.461 375.866 193.324 397.022 203.771C418.179 214.218 350.651 311.417 324.439 308.072C298.228 304.726 295.514 184.879 314.624 183.17Z" fill="#C84B24"/>
<path fill-rule="evenodd" clip-rule="evenodd" d="M220.214 192.877C251.133 198.512 256.128 304.261 233.043 315.31C203.103 329.639 156.79 258.783 153.599 231.882C150.754 207.906 192.064 187.746 220.214 192.877Z" fill="#C84B24"/>
<path d="M467.304 202.61C417.667 194.028 361.006 228.799 275.91 235.463C213.609 240.342 143.955 236.048 118.339 222.506C70.0813 196.556 87.8734 136.895 120.525 96.636C147.652 63.1894 190.471 40.0568 225.22 30.3464C338.372 -1.29856 434.019 76.5148 466.303 126.324C491.369 164.687 503.397 208.853 467.304 202.61Z" stroke="#6B2000" stroke-width="44.8556" stroke-linejoin="round"/>
<path d="M467.304 202.61C417.667 194.028 361.006 228.799 275.91 235.463C213.609 240.342 143.955 236.048 118.339 222.506C70.0813 196.556 87.8734 136.895 120.525 96.636C147.652 63.1894 190.471 40.0568 225.22 30.3464C338.372 -1.29856 434.019 76.5148 466.303 126.324C491.369 164.687 503.397 208.853 467.304 202.61Z" stroke="#6B2000" stroke-width="3.99936" stroke-linejoin="round"/>
<path fill-rule="evenodd" clip-rule="evenodd" d="M152.102 324.175C143.172 323.993 136.082 315.866 136.282 306.044C136.483 296.221 143.899 288.391 152.829 288.573C161.759 288.755 168.849 296.882 168.648 306.705C168.448 316.527 161.032 324.358 152.102 324.175Z" fill="white"/>
<path fill-rule="evenodd" clip-rule="evenodd" d="M113.964 301.646C105.034 301.463 97.944 293.337 98.1445 283.514C98.3451 273.691 105.761 265.861 114.691 266.043C123.621 266.225 130.711 274.352 130.51 284.175C130.31 293.997 122.894 301.828 113.964 301.646Z" fill="white"/>
<path d="M219.564 217.806C243.104 242.327 166.196 314.668 133.128 308.269C100.06 301.87 124.699 196.348 143.219 186.423C161.738 176.498 196.024 193.284 219.564 217.806Z" stroke="#6B2000" stroke-width="47.3957" stroke-linejoin="round"/>
<path d="M219.564 217.806C243.104 242.327 166.196 314.668 133.128 308.269C100.06 301.87 124.699 196.348 143.219 186.423C161.738 176.498 196.024 193.284 219.564 217.806Z" stroke="#6B2000" stroke-width="3.99936" stroke-linejoin="round"/>
<path d="M415.74 164.089C443.675 155.657 498.62 274.973 472.108 298.217C445.595 321.461 339.199 232.073 350.199 214.919C361.2 197.765 387.804 172.522 415.74 164.089Z" stroke="#6B2000" stroke-width="49.6069" stroke-linejoin="round"/>
<path d="M415.74 164.089C443.675 155.657 498.62 274.973 472.108 298.217C445.595 321.461 339.199 232.073 350.199 214.919C361.2 197.765 387.804 172.522 415.74 164.089Z" stroke="#6B2000" stroke-width="3.99936" stroke-linejoin="round"/>
<path d="M71.3871 197.719C45.4593 199.304 23.3505 183.431 22.0591 162.305C20.7678 141.178 40.7788 122.731 66.7066 121.146C92.6345 119.562 114.743 135.434 116.035 156.561C117.326 177.687 97.315 196.134 71.3871 197.719Z" stroke="#475EBC" stroke-width="43.9019" stroke-linejoin="round"/>
<path d="M71.3871 197.719C45.4593 199.304 23.3505 183.431 22.0591 162.305C20.7678 141.178 40.7788 122.731 66.7066 121.146C92.6345 119.562 114.743 135.434 116.035 156.561C117.326 177.687 97.315 196.134 71.3871 197.719Z" stroke="#475EBC" stroke-width="3.99936" stroke-linejoin="round"/>
<path fill-rule="evenodd" clip-rule="evenodd" d="M467.304 202.61C417.667 194.028 361.006 228.799 275.91 235.463C213.609 240.342 143.955 236.048 118.339 222.506C70.0813 196.556 87.8734 136.895 120.525 96.636C147.652 63.1894 190.471 40.0568 225.22 30.3464C338.372 -1.29856 434.019 76.5148 466.303 126.324C491.369 164.687 503.397 208.853 467.304 202.61Z" fill="#C84B24"/>
<path fill-rule="evenodd" clip-rule="evenodd" d="M219.564 217.806C243.104 242.327 166.196 314.668 133.128 308.269C100.06 301.87 124.699 196.348 143.219 186.423C161.738 176.498 196.024 193.284 219.564 217.806Z" fill="#C84B24"/>
<path fill-rule="evenodd" clip-rule="evenodd" d="M415.74 164.089C443.675 155.657 498.62 274.973 472.108 298.217C445.595 321.461 339.199 232.073 350.199 214.919C361.2 197.765 387.804 172.522 415.74 164.089Z" fill="#C84B24"/>
<path fill-rule="evenodd" clip-rule="evenodd" d="M71.3871 197.719C45.4593 199.304 23.3505 183.431 22.0591 162.305C20.7678 141.178 40.7788 122.731 66.7066 121.146C92.6345 119.562 114.743 135.434 116.035 156.561C117.326 177.687 97.315 196.134 71.3871 197.719Z" fill="black"/>
<path fill-rule="evenodd" clip-rule="evenodd" d="M54.5532 172.836C40.1028 173.72 27.8018 165.215 27.1078 153.861C26.4138 142.507 37.5874 132.568 52.0378 131.684C66.4882 130.801 78.7892 139.306 79.4832 150.66C80.1772 162.014 69.0036 171.953 54.5532 172.836Z" fill="white"/>
<path fill-rule="evenodd" clip-rule="evenodd" d="M141.378 121.144C150.966 117.673 164.146 105.462 170.785 93.8997C177.424 82.3374 175.028 75.7656 165.439 79.2369C155.851 82.7083 142.671 94.9194 136.032 106.482C129.393 118.044 131.789 124.616 141.378 121.144Z" fill="black"/>
<path fill-rule="evenodd" clip-rule="evenodd" d="M180.55 134.28C190.723 131.71 204.715 117.808 211.769 103.263C218.822 88.7173 216.288 78.9904 206.114 81.5605C195.941 84.1306 181.949 98.0325 174.896 112.578C167.842 127.123 170.377 136.85 180.55 134.28Z" fill="black"/>
</svg>
