<svg width="443" height="349" viewBox="0 0 443 349" fill="none" xmlns="http://www.w3.org/2000/svg">
<path d="M282.848 330.397C283.986 330.438 285.16 330.466 286.372 330.48L289.649 187.023" stroke="#6B4B4B" stroke-width="33.9558" stroke-linejoin="round"/>
<path d="M282.848 330.397C283.986 330.438 285.16 330.466 286.372 330.48L289.649 187.023" stroke="#6B4B4B" stroke-width="2.31977" stroke-linejoin="round"/>
<path d="M286.372 330.48C287.514 330.493 288.689 330.495 289.898 330.484L289.649 187.023" stroke="#6B4B4B" stroke-width="33.8904" stroke-linejoin="round"/>
<path d="M286.372 330.48C287.514 330.493 288.689 330.495 289.898 330.484L289.649 187.023" stroke="#6B4B4B" stroke-width="2.31151" stroke-linejoin="round"/>
<path d="M289.898 330.484C289.913 330.484 289.929 330.484 289.945 330.484C291.128 330.473 292.287 330.45 293.422 330.417C329.338 329.357 289.649 187.023 289.649 187.023" stroke="#6B4B4B" stroke-width="33.7017" stroke-linejoin="round"/>
<path d="M289.898 330.484C289.913 330.484 289.929 330.484 289.945 330.484C291.128 330.473 292.287 330.45 293.422 330.417C329.338 329.357 289.649 187.023 289.649 187.023" stroke="#6B4B4B" stroke-width="2.30579" stroke-linejoin="round"/>
<path d="M293.422 330.417C294.622 330.381 295.796 330.334 296.944 330.274L289.649 187.023" stroke="#6B4B4B" stroke-width="33.4031" stroke-linejoin="round"/>
<path d="M293.422 330.417C294.622 330.381 295.796 330.334 296.944 330.274L289.649 187.023" stroke="#6B4B4B" stroke-width="2.30239" stroke-linejoin="round"/>
<path d="M296.944 330.274C298.145 330.212 299.317 330.137 300.462 330.049L289.649 187.023" stroke="#6B4B4B" stroke-width="33.008" stroke-linejoin="round"/>
<path d="M296.944 330.274C298.145 330.212 299.317 330.137 300.462 330.049L289.649 187.023" stroke="#6B4B4B" stroke-width="2.30108" stroke-linejoin="round"/>
<path d="M300.462 330.049C301.662 329.957 302.832 329.852 303.973 329.734L289.649 187.023" stroke="#6B4B4B" stroke-width="32.5295" stroke-linejoin="round"/>
<path d="M300.462 330.049C301.662 329.957 302.832 329.852 303.973 329.734L289.649 187.023" stroke="#6B4B4B" stroke-width="2.30164" stroke-linejoin="round"/>
<path d="M303.973 329.734C305.172 329.609 306.338 329.471 307.474 329.318L289.649 187.023" stroke="#6B4B4B" stroke-width="31.9812" stroke-linejoin="round"/>
<path d="M303.973 329.734C305.172 329.609 306.338 329.471 307.474 329.318L289.649 187.023" stroke="#6B4B4B" stroke-width="2.30384" stroke-linejoin="round"/>
<path d="M307.474 329.318C308.669 329.158 309.831 328.983 310.96 328.793L289.649 187.023" stroke="#6B4B4B" stroke-width="31.3762" stroke-linejoin="round"/>
<path d="M307.474 329.318C308.669 329.158 309.831 328.983 310.96 328.793L289.649 187.023" stroke="#6B4B4B" stroke-width="2.30746" stroke-linejoin="round"/>
<path d="M310.96 328.793C312.151 328.593 313.305 328.377 314.425 328.146L289.649 187.023" stroke="#6B4B4B" stroke-width="30.728" stroke-linejoin="round"/>
<path d="M310.96 328.793C312.151 328.593 313.305 328.377 314.425 328.146L289.649 187.023" stroke="#6B4B4B" stroke-width="2.31227" stroke-linejoin="round"/>
<path d="M314.425 328.146C315.609 327.901 316.754 327.64 317.862 327.363L289.649 187.023" stroke="#6B4B4B" stroke-width="30.0498" stroke-linejoin="round"/>
<path d="M314.425 328.146C315.609 327.901 316.754 327.64 317.862 327.363L289.649 187.023" stroke="#6B4B4B" stroke-width="2.31806" stroke-linejoin="round"/>
<path d="M317.862 327.363C319.036 327.07 320.169 326.759 321.261 326.432L289.649 187.023" stroke="#6B4B4B" stroke-width="29.355" stroke-linejoin="round"/>
<path d="M317.862 327.363C319.036 327.07 320.169 326.759 321.261 326.432L289.649 187.023" stroke="#6B4B4B" stroke-width="2.3246" stroke-linejoin="round"/>
<path d="M321.261 326.432C322.422 326.084 323.538 325.718 324.611 325.335L289.649 187.023" stroke="#6B4B4B" stroke-width="28.6569" stroke-linejoin="round"/>
<path d="M321.261 326.432C322.422 326.084 323.538 325.718 324.611 325.335L289.649 187.023" stroke="#6B4B4B" stroke-width="2.33166" stroke-linejoin="round"/>
<path d="M324.611 325.335C325.754 324.928 326.848 324.502 327.897 324.058L289.649 187.023" stroke="#6B4B4B" stroke-width="27.9689" stroke-linejoin="round"/>
<path d="M324.611 325.335C325.754 324.928 326.848 324.502 327.897 324.058L289.649 187.023" stroke="#6B4B4B" stroke-width="2.33901" stroke-linejoin="round"/>
<path d="M327.897 324.058C329.015 323.586 330.081 323.094 331.099 322.586L289.649 187.023" stroke="#6B4B4B" stroke-width="27.3042" stroke-linejoin="round"/>
<path d="M327.897 324.058C329.015 323.586 330.081 323.094 331.099 322.586L289.649 187.023" stroke="#6B4B4B" stroke-width="2.34645" stroke-linejoin="round"/>
<path d="M331.099 322.586C332.185 322.044 333.216 321.483 334.197 320.905L289.649 187.023" stroke="#6B4B4B" stroke-width="26.6763" stroke-linejoin="round"/>
<path d="M331.099 322.586C332.185 322.044 333.216 321.483 334.197 320.905L289.649 187.023" stroke="#6B4B4B" stroke-width="2.35373" stroke-linejoin="round"/>
<path d="M334.197 320.905C335.242 320.29 336.23 319.656 337.167 319.007L289.649 187.023" stroke="#6B4B4B" stroke-width="26.0984" stroke-linejoin="round"/>
<path d="M334.197 320.905C335.242 320.29 336.23 319.656 337.167 319.007L289.649 187.023" stroke="#6B4B4B" stroke-width="2.36064" stroke-linejoin="round"/>
<path d="M337.167 319.007C338.163 318.318 339.1 317.611 339.986 316.892L289.649 187.023" stroke="#6B4B4B" stroke-width="25.5838" stroke-linejoin="round"/>
<path d="M337.167 319.007C338.163 318.318 339.1 317.611 339.986 316.892L289.649 187.023" stroke="#6B4B4B" stroke-width="2.36695" stroke-linejoin="round"/>
<path d="M339.986 316.892C340.924 316.129 341.805 315.352 342.634 314.566L289.649 187.023" stroke="#6B4B4B" stroke-width="25.146" stroke-linejoin="round"/>
<path d="M339.986 316.892C340.924 316.129 341.805 315.352 342.634 314.566L289.649 187.023" stroke="#6B4B4B" stroke-width="2.37245" stroke-linejoin="round"/>
<path d="M342.634 314.566C343.51 313.736 344.33 312.895 345.102 312.05L289.649 187.023" stroke="#6B4B4B" stroke-width="24.7982" stroke-linejoin="round"/>
<path d="M342.634 314.566C343.51 313.736 344.33 312.895 345.102 312.05L289.649 187.023" stroke="#6B4B4B" stroke-width="2.37689" stroke-linejoin="round"/>
<path d="M345.102 312.05C345.915 311.16 346.675 310.264 347.392 309.371L289.649 187.023" stroke="#6B4B4B" stroke-width="24.5537" stroke-linejoin="round"/>
<path d="M345.102 312.05C345.915 311.16 346.675 310.264 347.392 309.371L289.649 187.023" stroke="#6B4B4B" stroke-width="2.38007" stroke-linejoin="round"/>
<path d="M347.392 309.371C348.147 308.432 348.855 307.494 349.528 306.567L289.649 187.023" stroke="#6B4B4B" stroke-width="24.4259" stroke-linejoin="round"/>
<path d="M347.392 309.371C348.147 308.432 348.855 307.494 349.528 306.567L289.649 187.023" stroke="#6B4B4B" stroke-width="2.38175" stroke-linejoin="round"/>
<path d="M349.528 306.567C350.427 305.329 351.263 304.109 352.067 302.927L289.649 187.023" stroke="#6B4B4B" stroke-width="24.4248" stroke-linejoin="round"/>
<path d="M349.528 306.567C350.427 305.329 351.263 304.109 352.067 302.927L289.649 187.023" stroke="#6B4B4B" stroke-width="2.37928" stroke-linejoin="round"/>
<path d="M352.067 302.927C352.931 301.657 353.757 300.429 354.581 299.269L289.649 187.023" stroke="#6B4B4B" stroke-width="24.5486" stroke-linejoin="round"/>
<path d="M352.067 302.927C352.931 301.657 353.757 300.429 354.581 299.269L289.649 187.023" stroke="#6B4B4B" stroke-width="2.36803" stroke-linejoin="round"/>
<path d="M354.581 299.269C355.474 298.012 356.365 296.833 357.3 295.764L289.649 187.023" stroke="#6B4B4B" stroke-width="24.7857" stroke-linejoin="round"/>
<path d="M354.581 299.269C355.474 298.012 356.365 296.833 357.3 295.764L289.649 187.023" stroke="#6B4B4B" stroke-width="2.3465" stroke-linejoin="round"/>
<path d="M357.3 295.764C358.305 294.613 359.362 293.589 360.526 292.729L289.649 187.023" stroke="#6B4B4B" stroke-width="25.1236" stroke-linejoin="round"/>
<path d="M357.3 295.764C358.305 294.613 359.362 293.589 360.526 292.729L289.649 187.023" stroke="#6B4B4B" stroke-width="2.31581" stroke-linejoin="round"/>
<path d="M360.526 292.729C361.7 291.861 362.984 291.161 364.436 290.665L289.649 187.023" stroke="#6B4B4B" stroke-width="25.5495" stroke-linejoin="round"/>
<path d="M360.526 292.729C361.7 291.861 362.984 291.161 364.436 290.665L289.649 187.023" stroke="#6B4B4B" stroke-width="2.27712" stroke-linejoin="round"/>
<path d="M364.436 290.665C364.901 290.506 365.383 290.369 365.885 290.253C366.791 290.033 367.721 289.725 368.666 289.337C384.236 282.954 289.649 187.023 289.649 187.023" stroke="#6B4B4B" stroke-width="26.051" stroke-linejoin="round"/>
<path d="M364.436 290.665C364.901 290.506 365.383 290.369 365.885 290.253C366.791 290.033 367.721 289.725 368.666 289.337C384.236 282.954 289.649 187.023 289.649 187.023" stroke="#6B4B4B" stroke-width="2.23157" stroke-linejoin="round"/>
<path d="M368.666 289.337C369.961 288.806 371.285 288.126 372.615 287.321L289.649 187.023" stroke="#6B4B4B" stroke-width="26.6154" stroke-linejoin="round"/>
<path d="M368.666 289.337C369.961 288.806 371.285 288.126 372.615 287.321L289.649 187.023" stroke="#6B4B4B" stroke-width="2.1803" stroke-linejoin="round"/>
<path d="M372.615 287.321C373.835 286.583 375.059 285.739 376.27 284.807L289.649 187.023" stroke="#6B4B4B" stroke-width="27.2302" stroke-linejoin="round"/>
<path d="M372.615 287.321C373.835 286.583 375.059 285.739 376.27 284.807L289.649 187.023" stroke="#6B4B4B" stroke-width="2.12445" stroke-linejoin="round"/>
<path d="M376.27 284.807C377.417 283.926 378.551 282.966 379.659 281.944L289.649 187.023" stroke="#6B4B4B" stroke-width="27.8827" stroke-linejoin="round"/>
<path d="M376.27 284.807C377.417 283.926 378.551 282.966 379.659 281.944L289.649 187.023" stroke="#6B4B4B" stroke-width="2.06518" stroke-linejoin="round"/>
<path d="M379.659 281.944C380.734 280.952 381.783 279.9 382.794 278.803L289.649 187.023" stroke="#6B4B4B" stroke-width="28.5605" stroke-linejoin="round"/>
<path d="M379.659 281.944C380.734 280.952 381.783 279.9 382.794 278.803L289.649 187.023" stroke="#6B4B4B" stroke-width="2.00362" stroke-linejoin="round"/>
<path d="M382.794 278.803C383.795 277.717 384.758 276.586 385.67 275.424L289.649 187.023" stroke="#6B4B4B" stroke-width="29.2508" stroke-linejoin="round"/>
<path d="M382.794 278.803C383.795 277.717 384.758 276.586 385.67 275.424L289.649 187.023" stroke="#6B4B4B" stroke-width="1.94091" stroke-linejoin="round"/>
<path d="M385.67 275.424C386.59 274.251 387.459 273.046 388.261 271.823L289.649 187.023" stroke="#6B4B4B" stroke-width="29.9411" stroke-linejoin="round"/>
<path d="M385.67 275.424C386.59 274.251 387.459 273.046 388.261 271.823L289.649 187.023" stroke="#6B4B4B" stroke-width="1.8782" stroke-linejoin="round"/>
<path d="M388.261 271.823C389.088 270.563 389.844 269.284 390.516 268.001L289.649 187.023" stroke="#6B4B4B" stroke-width="30.6188" stroke-linejoin="round"/>
<path d="M388.261 271.823C389.088 270.563 389.844 269.284 390.516 268.001L289.649 187.023" stroke="#6B4B4B" stroke-width="1.81664" stroke-linejoin="round"/>
<path d="M390.516 268.001C391.222 266.652 391.835 265.298 392.336 263.957L289.649 187.023" stroke="#6B4B4B" stroke-width="31.2714" stroke-linejoin="round"/>
<path d="M390.516 268.001C391.222 266.652 391.835 265.298 392.336 263.957L289.649 187.023" stroke="#6B4B4B" stroke-width="1.75737" stroke-linejoin="round"/>
<path d="M392.336 263.957C392.876 262.513 393.287 261.084 393.547 259.693L289.649 187.023" stroke="#6B4B4B" stroke-width="31.8862" stroke-linejoin="round"/>
<path d="M392.336 263.957C392.876 262.513 393.287 261.084 393.547 259.693L289.649 187.023" stroke="#6B4B4B" stroke-width="1.70152" stroke-linejoin="round"/>
<path d="M393.547 259.693C393.832 258.166 393.936 256.684 393.83 255.276L289.649 187.023" stroke="#6B4B4B" stroke-width="32.4506" stroke-linejoin="round"/>
<path d="M393.547 259.693C393.832 258.166 393.936 256.684 393.83 255.276L289.649 187.023" stroke="#6B4B4B" stroke-width="1.65025" stroke-linejoin="round"/>
<path d="M393.83 255.276C393.715 253.755 393.355 252.32 392.715 251.007L289.649 187.023" stroke="#6B4B4B" stroke-width="32.9521" stroke-linejoin="round"/>
<path d="M393.83 255.276C393.715 253.755 393.355 252.32 392.715 251.007L289.649 187.023" stroke="#6B4B4B" stroke-width="1.6047" stroke-linejoin="round"/>
<path d="M392.715 251.007C392.088 249.723 391.193 248.557 389.995 247.541L289.649 187.023" stroke="#6B4B4B" stroke-width="33.378" stroke-linejoin="round"/>
<path d="M392.715 251.007C392.088 249.723 391.193 248.557 389.995 247.541L289.649 187.023" stroke="#6B4B4B" stroke-width="1.56601" stroke-linejoin="round"/>
<path d="M389.995 247.541C389.372 247.013 388.668 246.526 387.878 246.084C387.331 245.778 386.782 245.485 386.232 245.207C383.51 243.832 289.649 187.023 289.649 187.023" stroke="#6B4B4B" stroke-width="33.7158" stroke-linejoin="round"/>
<path d="M389.995 247.541C389.372 247.013 388.668 246.526 387.878 246.084C387.331 245.778 386.782 245.485 386.232 245.207C383.51 243.832 289.649 187.023 289.649 187.023" stroke="#6B4B4B" stroke-width="1.53532" stroke-linejoin="round"/>
<path d="M386.232 245.207C384.889 244.529 383.536 243.934 382.173 243.418L289.649 187.023" stroke="#6B4B4B" stroke-width="33.9529" stroke-linejoin="round"/>
<path d="M386.232 245.207C384.889 244.529 383.536 243.934 382.173 243.418L289.649 187.023" stroke="#6B4B4B" stroke-width="1.51379" stroke-linejoin="round"/>
<path d="M382.173 243.418C380.774 242.888 379.365 242.441 377.946 242.071L289.649 187.023" stroke="#6B4B4B" stroke-width="34.0767" stroke-linejoin="round"/>
<path d="M382.173 243.418C380.774 242.888 379.365 242.441 377.946 242.071L289.649 187.023" stroke="#6B4B4B" stroke-width="1.50254" stroke-linejoin="round"/>
<path d="M377.946 242.071C361.963 237.908 344.803 243.556 327.433 250.796C325.029 251.877 321.625 253.665 317.583 255.994C285.244 274.622 289.649 187.023 289.649 187.023" stroke="#6B4B4B" stroke-width="33.9513" stroke-linejoin="round"/>
<path d="M377.946 242.071C361.963 237.908 344.803 243.556 327.433 250.796C325.029 251.877 321.625 253.665 317.583 255.994C285.244 274.622 289.649 187.023 289.649 187.023" stroke="#6B4B4B" stroke-width="1.6285" stroke-linejoin="round"/>
<path d="M317.583 255.994C303.312 264.215 281.079 279.174 266.777 293.543L289.649 187.023" stroke="#6B4B4B" stroke-width="33.6196" stroke-linejoin="round"/>
<path d="M317.583 255.994C303.312 264.215 281.079 279.174 266.777 293.543L289.649 187.023" stroke="#6B4B4B" stroke-width="1.9779" stroke-linejoin="round"/>
<path d="M266.777 293.543C248.671 311.734 243.278 328.977 282.848 330.397L289.649 187.023" stroke="#6B4B4B" stroke-width="33.7006" stroke-linejoin="round"/>
<path d="M266.777 293.543C248.671 311.734 243.278 328.977 282.848 330.397L289.649 187.023" stroke="#6B4B4B" stroke-width="2.2615" stroke-linejoin="round"/>
<path d="M298.097 176.519C295.503 176.674 292.888 176.928 290.299 177.26L289.649 187.023" stroke="#6B4B4B" stroke-width="22.9236" stroke-linejoin="round"/>
<path d="M298.097 176.519C295.503 176.674 292.888 176.928 290.299 177.26L289.649 187.023" stroke="#6B4B4B" stroke-width="1.49963" stroke-linejoin="round"/>
<path d="M290.299 177.26C287.678 177.596 285.083 178.014 282.564 178.49L289.649 187.022" stroke="#6B4B4B" stroke-width="23.0256" stroke-linejoin="round"/>
<path d="M290.299 177.26C287.678 177.596 285.083 178.014 282.564 178.49L289.649 187.022" stroke="#6B4B4B" stroke-width="1.49963" stroke-linejoin="round"/>
<path d="M282.564 178.49C279.911 178.991 277.342 179.558 274.913 180.166L289.649 187.023" stroke="#6B4B4B" stroke-width="23.2226" stroke-linejoin="round"/>
<path d="M282.564 178.49C279.911 178.991 277.342 179.558 274.913 180.166L289.649 187.023" stroke="#6B4B4B" stroke-width="1.49963" stroke-linejoin="round"/>
<path d="M274.913 180.166C272.202 180.843 269.665 181.571 267.381 182.315L289.649 187.022" stroke="#6B4B4B" stroke-width="23.5065" stroke-linejoin="round"/>
<path d="M274.913 180.166C272.202 180.843 269.665 181.571 267.381 182.315L289.649 187.022" stroke="#6B4B4B" stroke-width="1.49963" stroke-linejoin="round"/>
<path d="M267.381 182.315C264.488 183.256 262.001 184.223 260.081 185.142L289.648 187.022" stroke="#6B4B4B" stroke-width="23.8689" stroke-linejoin="round"/>
<path d="M267.381 182.315C264.488 183.256 262.001 184.223 260.081 185.142L289.648 187.022" stroke="#6B4B4B" stroke-width="1.49963" stroke-linejoin="round"/>
<path d="M260.081 185.142C256.766 186.73 255.142 188.179 256.036 189.121C256.391 189.495 256.723 189.891 257.03 190.307C275.763 215.622 289.649 187.022 289.649 187.022" stroke="#6B4B4B" stroke-width="24.3016" stroke-linejoin="round"/>
<path d="M260.081 185.142C256.766 186.73 255.142 188.179 256.036 189.121C256.391 189.495 256.723 189.891 257.03 190.307C275.763 215.622 289.649 187.022 289.649 187.022" stroke="#6B4B4B" stroke-width="1.49963" stroke-linejoin="round"/>
<path d="M257.03 190.307C258.486 192.273 259.422 194.699 259.941 197.507L289.649 187.022" stroke="#6B4B4B" stroke-width="24.7963" stroke-linejoin="round"/>
<path d="M257.03 190.307C258.486 192.273 259.422 194.699 259.941 197.507L289.649 187.022" stroke="#6B4B4B" stroke-width="1.49963" stroke-linejoin="round"/>
<path d="M259.941 197.507C260.376 199.856 260.519 202.472 260.43 205.31L289.649 187.022" stroke="#6B4B4B" stroke-width="25.3448" stroke-linejoin="round"/>
<path d="M259.941 197.507C260.376 199.856 260.519 202.472 260.43 205.31L289.649 187.022" stroke="#6B4B4B" stroke-width="1.49963" stroke-linejoin="round"/>
<path d="M260.43 205.31C260.354 207.755 260.106 210.364 259.725 213.109L289.649 187.022" stroke="#6B4B4B" stroke-width="25.9387" stroke-linejoin="round"/>
<path d="M260.43 205.31C260.354 207.755 260.106 210.364 259.725 213.109L289.649 187.022" stroke="#6B4B4B" stroke-width="1.49963" stroke-linejoin="round"/>
<path d="M259.725 213.109C259.382 215.579 258.932 218.16 258.401 220.829L289.649 187.022" stroke="#6B4B4B" stroke-width="26.5698" stroke-linejoin="round"/>
<path d="M259.725 213.109C259.382 215.579 258.932 218.16 258.401 220.829L289.649 187.022" stroke="#6B4B4B" stroke-width="1.49963" stroke-linejoin="round"/>
<path d="M258.401 220.829C257.908 223.309 257.346 225.866 256.737 228.483L289.649 187.022" stroke="#6B4B4B" stroke-width="27.2299" stroke-linejoin="round"/>
<path d="M258.401 220.829C257.908 223.309 257.346 225.866 256.737 228.483L289.649 187.022" stroke="#6B4B4B" stroke-width="1.49963" stroke-linejoin="round"/>
<path d="M256.737 228.483C256.159 230.972 255.538 233.515 254.895 236.097L289.649 187.022" stroke="#6B4B4B" stroke-width="27.9106" stroke-linejoin="round"/>
<path d="M256.737 228.483C256.159 230.972 255.538 233.515 254.895 236.097L289.649 187.022" stroke="#6B4B4B" stroke-width="1.49963" stroke-linejoin="round"/>
<path d="M254.895 236.097C254.272 238.597 253.628 241.133 252.981 243.693L289.649 187.022" stroke="#6B4B4B" stroke-width="28.6038" stroke-linejoin="round"/>
<path d="M254.895 236.097C254.272 238.597 253.628 241.133 252.981 243.693L289.649 187.022" stroke="#6B4B4B" stroke-width="1.49963" stroke-linejoin="round"/>
<path d="M252.981 243.693C252.345 246.208 251.706 248.745 251.079 251.293L289.649 187.022" stroke="#6B4B4B" stroke-width="29.301" stroke-linejoin="round"/>
<path d="M252.981 243.693C252.345 246.208 251.706 248.745 251.079 251.293L289.649 187.022" stroke="#6B4B4B" stroke-width="1.49963" stroke-linejoin="round"/>
<path d="M251.079 251.293C250.456 253.827 249.847 256.371 249.266 258.914L289.649 187.022" stroke="#6B4B4B" stroke-width="29.9942" stroke-linejoin="round"/>
<path d="M251.079 251.293C250.456 253.827 249.847 256.371 249.266 258.914L289.649 187.022" stroke="#6B4B4B" stroke-width="1.49963" stroke-linejoin="round"/>
<path d="M249.266 258.914C248.682 261.473 248.128 264.03 247.62 266.572L289.649 187.022" stroke="#6B4B4B" stroke-width="30.6749" stroke-linejoin="round"/>
<path d="M249.266 258.914C248.682 261.473 248.128 264.03 247.62 266.572L289.649 187.022" stroke="#6B4B4B" stroke-width="1.49963" stroke-linejoin="round"/>
<path d="M247.62 266.572C247.103 269.162 246.634 271.736 246.231 274.281L289.649 187.022" stroke="#6B4B4B" stroke-width="31.335" stroke-linejoin="round"/>
<path d="M247.62 266.572C247.103 269.162 246.634 271.736 246.231 274.281L289.649 187.022" stroke="#6B4B4B" stroke-width="1.49963" stroke-linejoin="round"/>
<path d="M246.231 274.281C245.816 276.905 245.47 279.499 245.215 282.048L289.649 187.022" stroke="#6B4B4B" stroke-width="31.9661" stroke-linejoin="round"/>
<path d="M246.231 274.281C245.816 276.905 245.47 279.499 245.215 282.048L289.649 187.022" stroke="#6B4B4B" stroke-width="1.49963" stroke-linejoin="round"/>
<path d="M245.215 282.048C244.948 284.708 244.779 287.319 244.73 289.864L289.649 187.022" stroke="#6B4B4B" stroke-width="32.5601" stroke-linejoin="round"/>
<path d="M245.215 282.048C244.948 284.708 244.779 287.319 244.73 289.864L289.649 187.022" stroke="#6B4B4B" stroke-width="1.49963" stroke-linejoin="round"/>
<path d="M244.73 289.864C244.678 292.552 244.759 295.167 245 297.689L289.649 187.022" stroke="#6B4B4B" stroke-width="33.1085" stroke-linejoin="round"/>
<path d="M244.73 289.864C244.678 292.552 244.759 295.167 245 297.689L289.649 187.022" stroke="#6B4B4B" stroke-width="1.49963" stroke-linejoin="round"/>
<path d="M245 297.689C245.256 300.372 245.692 302.949 246.341 305.398L289.649 187.022" stroke="#6B4B4B" stroke-width="33.6032" stroke-linejoin="round"/>
<path d="M245 297.689C245.256 300.372 245.692 302.949 246.341 305.398L289.649 187.022" stroke="#6B4B4B" stroke-width="1.49963" stroke-linejoin="round"/>
<path d="M246.341 305.398C247.025 307.984 247.946 310.426 249.14 312.697L289.649 187.022" stroke="#6B4B4B" stroke-width="34.0359" stroke-linejoin="round"/>
<path d="M246.341 305.398C247.025 307.984 247.946 310.426 249.14 312.697L289.649 187.022" stroke="#6B4B4B" stroke-width="1.49963" stroke-linejoin="round"/>
<path d="M249.14 312.697C250.353 315.005 251.848 317.137 253.664 319.062L289.649 187.022" stroke="#6B4B4B" stroke-width="34.3983" stroke-linejoin="round"/>
<path d="M249.14 312.697C250.353 315.005 251.848 317.137 253.664 319.062L289.649 187.022" stroke="#6B4B4B" stroke-width="1.49963" stroke-linejoin="round"/>
<path d="M253.665 319.062C255.39 320.891 257.405 322.534 259.743 323.966L289.649 187.022" stroke="#6B4B4B" stroke-width="34.6822" stroke-linejoin="round"/>
<path d="M253.665 319.062C255.39 320.891 257.405 322.534 259.743 323.966L289.649 187.022" stroke="#6B4B4B" stroke-width="1.49963" stroke-linejoin="round"/>
<path d="M259.743 323.966C261.836 325.248 264.188 326.361 266.822 327.287L289.649 187.022" stroke="#6B4B4B" stroke-width="34.8793" stroke-linejoin="round"/>
<path d="M259.743 323.966C261.836 325.248 264.188 326.361 266.822 327.287L289.649 187.022" stroke="#6B4B4B" stroke-width="1.49963" stroke-linejoin="round"/>
<path d="M266.822 327.287C269.124 328.096 271.642 328.762 274.392 329.273L289.649 187.022" stroke="#6B4B4B" stroke-width="34.9812" stroke-linejoin="round"/>
<path d="M266.822 327.287C269.124 328.096 271.642 328.762 274.392 329.273L289.649 187.022" stroke="#6B4B4B" stroke-width="1.49963" stroke-linejoin="round"/>
<path d="M274.392 329.273C277.083 329.773 279.995 330.125 283.145 330.317L289.649 187.022" stroke="#6B4B4B" stroke-width="34.9812" stroke-linejoin="round"/>
<path d="M274.392 329.273C277.083 329.773 279.995 330.125 283.145 330.317L289.649 187.022" stroke="#6B4B4B" stroke-width="1.49963" stroke-linejoin="round"/>
<path d="M283.145 330.317C285.299 330.448 287.564 330.505 289.945 330.484C290.627 330.477 291.299 330.465 291.961 330.447C354.662 328.752 289.649 187.022 289.649 187.022" stroke="#6B4B4B" stroke-width="34.8793" stroke-linejoin="round"/>
<path d="M283.145 330.317C285.299 330.448 287.564 330.505 289.945 330.484C290.627 330.477 291.299 330.465 291.961 330.447C354.662 328.752 289.649 187.022 289.649 187.022" stroke="#6B4B4B" stroke-width="1.49963" stroke-linejoin="round"/>
<path d="M291.961 330.447C295.11 330.362 298.037 330.148 300.756 329.818L289.649 187.022" stroke="#6B4B4B" stroke-width="34.6822" stroke-linejoin="round"/>
<path d="M291.961 330.447C295.11 330.362 298.037 330.148 300.756 329.818L289.649 187.022" stroke="#6B4B4B" stroke-width="1.49963" stroke-linejoin="round"/>
<path d="M300.756 329.818C303.919 329.434 306.801 328.893 309.423 328.216L289.649 187.022" stroke="#6B4B4B" stroke-width="34.3983" stroke-linejoin="round"/>
<path d="M300.756 329.818C303.919 329.434 306.801 328.893 309.423 328.216L289.649 187.022" stroke="#6B4B4B" stroke-width="1.49963" stroke-linejoin="round"/>
<path d="M309.423 328.216C312.543 327.41 315.295 326.411 317.716 325.252L289.649 187.022" stroke="#6B4B4B" stroke-width="34.0359" stroke-linejoin="round"/>
<path d="M309.423 328.216C312.543 327.41 315.295 326.411 317.716 325.252L289.649 187.022" stroke="#6B4B4B" stroke-width="1.49963" stroke-linejoin="round"/>
<path d="M317.716 325.252C320.627 323.86 323.059 322.237 325.076 320.444L289.649 187.022" stroke="#6B4B4B" stroke-width="33.6032" stroke-linejoin="round"/>
<path d="M317.716 325.252C320.627 323.86 323.059 322.237 325.076 320.444L289.649 187.022" stroke="#6B4B4B" stroke-width="1.49963" stroke-linejoin="round"/>
<path d="M325.076 320.444C327.427 318.355 329.214 316.035 330.539 313.577L289.649 187.022" stroke="#6B4B4B" stroke-width="33.1085" stroke-linejoin="round"/>
<path d="M325.076 320.444C327.427 318.355 329.214 316.035 330.539 313.577L289.649 187.022" stroke="#6B4B4B" stroke-width="1.49963" stroke-linejoin="round"/>
<path d="M330.539 313.577C331.97 310.923 332.861 308.11 333.34 305.256L289.649 187.022" stroke="#6B4B4B" stroke-width="32.5601" stroke-linejoin="round"/>
<path d="M330.539 313.577C331.97 310.923 332.861 308.11 333.34 305.256L289.649 187.022" stroke="#6B4B4B" stroke-width="1.49963" stroke-linejoin="round"/>
<path d="M333.34 305.256C333.832 302.325 333.889 299.351 333.65 296.463L289.649 187.022" stroke="#6B4B4B" stroke-width="31.9661" stroke-linejoin="round"/>
<path d="M333.34 305.256C333.832 302.325 333.889 299.351 333.65 296.463L289.649 187.022" stroke="#6B4B4B" stroke-width="1.49963" stroke-linejoin="round"/>
<path d="M333.65 296.463C333.398 293.431 332.819 290.493 332.072 287.798L289.649 187.022" stroke="#6B4B4B" stroke-width="31.335" stroke-linejoin="round"/>
<path d="M333.65 296.463C333.398 293.431 332.819 290.493 332.072 287.798L289.649 187.022" stroke="#6B4B4B" stroke-width="1.49963" stroke-linejoin="round"/>
<path d="M332.072 287.798C331.193 284.629 330.081 281.796 328.996 279.544L289.649 187.022" stroke="#6B4B4B" stroke-width="30.6749" stroke-linejoin="round"/>
<path d="M332.072 287.798C331.193 284.629 330.081 281.796 328.996 279.544L289.649 187.022" stroke="#6B4B4B" stroke-width="1.49963" stroke-linejoin="round"/>
<path d="M328.996 279.544C327.528 276.494 326.109 274.508 325.384 274.188C324.877 273.803 324.557 273.12 324.392 272.174C322.531 261.522 289.649 187.022 289.649 187.022" stroke="#6B4B4B" stroke-width="29.9942" stroke-linejoin="round"/>
<path d="M328.996 279.544C327.528 276.494 326.109 274.508 325.384 274.188C324.877 273.803 324.557 273.12 324.392 272.174C322.531 261.522 289.649 187.022 289.649 187.022" stroke="#6B4B4B" stroke-width="1.49963" stroke-linejoin="round"/>
<path d="M324.392 272.174C324.055 270.245 324.364 267.223 325.055 263.416L289.649 187.022" stroke="#6B4B4B" stroke-width="29.301" stroke-linejoin="round"/>
<path d="M324.392 272.174C324.055 270.245 324.364 267.223 325.055 263.416L289.649 187.022" stroke="#6B4B4B" stroke-width="1.49963" stroke-linejoin="round"/>
<path d="M325.055 263.416C325.518 260.862 326.153 257.955 326.88 254.788L289.649 187.022" stroke="#6B4B4B" stroke-width="28.6038" stroke-linejoin="round"/>
<path d="M325.055 263.416C325.518 260.862 326.153 257.955 326.88 254.788L289.649 187.022" stroke="#6B4B4B" stroke-width="1.49963" stroke-linejoin="round"/>
<path d="M326.88 254.788C327.498 252.093 328.183 249.211 328.884 246.198L289.649 187.022" stroke="#6B4B4B" stroke-width="27.9106" stroke-linejoin="round"/>
<path d="M326.88 254.788C327.498 252.093 328.183 249.211 328.884 246.198L289.649 187.022" stroke="#6B4B4B" stroke-width="1.49963" stroke-linejoin="round"/>
<path d="M328.884 246.198C329.529 243.426 330.189 240.543 330.824 237.594L289.649 187.022" stroke="#6B4B4B" stroke-width="27.2299" stroke-linejoin="round"/>
<path d="M328.884 246.198C329.529 243.426 330.189 240.543 330.824 237.594L289.649 187.022" stroke="#6B4B4B" stroke-width="1.49963" stroke-linejoin="round"/>
<path d="M330.824 237.594C331.435 234.759 332.024 231.863 332.556 228.945L289.649 187.022" stroke="#6B4B4B" stroke-width="26.5698" stroke-linejoin="round"/>
<path d="M330.824 237.594C331.435 234.759 332.024 231.863 332.556 228.945L289.649 187.022" stroke="#6B4B4B" stroke-width="1.49963" stroke-linejoin="round"/>
<path d="M332.556 228.945C333.084 226.05 333.556 223.134 333.94 220.235L289.649 187.022" stroke="#6B4B4B" stroke-width="25.9387" stroke-linejoin="round"/>
<path d="M332.556 228.945C333.084 226.05 333.556 223.134 333.94 220.235L289.649 187.022" stroke="#6B4B4B" stroke-width="1.49963" stroke-linejoin="round"/>
<path d="M333.94 220.235C334.331 217.278 334.63 214.338 334.801 211.459L289.649 187.022" stroke="#6B4B4B" stroke-width="25.3448" stroke-linejoin="round"/>
<path d="M333.94 220.235C334.331 217.278 334.63 214.338 334.801 211.459L289.649 187.022" stroke="#6B4B4B" stroke-width="1.49963" stroke-linejoin="round"/>
<path d="M334.801 211.459C334.98 208.439 335.018 205.484 334.874 202.644L289.649 187.022" stroke="#6B4B4B" stroke-width="24.7963" stroke-linejoin="round"/>
<path d="M334.801 211.459C334.98 208.439 335.018 205.484 334.874 202.644L289.649 187.022" stroke="#6B4B4B" stroke-width="1.49963" stroke-linejoin="round"/>
<path d="M334.874 202.644C334.719 199.581 334.352 196.65 333.723 193.91L289.649 187.022" stroke="#6B4B4B" stroke-width="24.3016" stroke-linejoin="round"/>
<path d="M334.874 202.644C334.719 199.581 334.352 196.65 333.723 193.91L289.649 187.022" stroke="#6B4B4B" stroke-width="1.49963" stroke-linejoin="round"/>
<path d="M333.723 193.91C333.59 193.334 333.446 192.767 333.291 192.209C332.912 189.689 332.036 187.527 330.751 185.684C325.185 177.7 289.649 187.023 289.649 187.023" stroke="#6B4B4B" stroke-width="23.8689" stroke-linejoin="round"/>
<path d="M333.723 193.91C333.59 193.334 333.446 192.767 333.291 192.209C332.912 189.689 332.036 187.527 330.751 185.684C325.185 177.7 289.649 187.023 289.649 187.023" stroke="#6B4B4B" stroke-width="1.49963" stroke-linejoin="round"/>
<path d="M330.751 185.684C329.115 183.337 326.815 181.507 324.032 180.113L289.649 187.023" stroke="#6B4B4B" stroke-width="23.5065" stroke-linejoin="round"/>
<path d="M330.751 185.684C329.115 183.337 326.815 181.507 324.032 180.113L289.649 187.023" stroke="#6B4B4B" stroke-width="1.49963" stroke-linejoin="round"/>
<path d="M324.032 180.113C321.579 178.885 318.751 177.996 315.67 177.392L289.649 187.023" stroke="#6B4B4B" stroke-width="23.2226" stroke-linejoin="round"/>
<path d="M324.032 180.113C321.579 178.885 318.751 177.996 315.67 177.392L289.649 187.023" stroke="#6B4B4B" stroke-width="1.49963" stroke-linejoin="round"/>
<path d="M315.67 177.392C312.922 176.852 309.974 176.539 306.913 176.413L289.649 187.023" stroke="#6B4B4B" stroke-width="23.0256" stroke-linejoin="round"/>
<path d="M315.67 177.392C312.922 176.852 309.974 176.539 306.913 176.413L289.649 187.023" stroke="#6B4B4B" stroke-width="1.49963" stroke-linejoin="round"/>
<path d="M306.913 176.413C304.049 176.295 301.087 176.341 298.097 176.519L289.649 187.022" stroke="#6B4B4B" stroke-width="22.9236" stroke-linejoin="round"/>
<path d="M306.913 176.413C304.049 176.295 301.087 176.341 298.097 176.519L289.649 187.022" stroke="#6B4B4B" stroke-width="1.49963" stroke-linejoin="round"/>
<path d="M371.54 329.296C374.656 328.399 377.388 326.288 379.769 323.617L289.648 187.023" stroke="#6B4B4B" stroke-width="30.443" stroke-linejoin="round"/>
<path d="M371.54 329.296C374.656 328.399 377.388 326.288 379.769 323.617L289.648 187.023" stroke="#6B4B4B" stroke-width="1.49963" stroke-linejoin="round"/>
<path d="M362.297 327.178C363.131 328.375 364.221 329.191 365.643 329.49C367.745 329.933 369.709 329.824 371.54 329.296C374.656 328.399 289.648 187.023 289.648 187.023" stroke="#6B4B4B" stroke-width="30.6419" stroke-linejoin="round"/>
<path d="M362.297 327.178C363.131 328.375 364.221 329.191 365.643 329.49C367.745 329.933 369.709 329.824 371.54 329.296C374.656 328.399 289.648 187.023 289.648 187.023" stroke="#6B4B4B" stroke-width="1.49963" stroke-linejoin="round"/>
<path d="M359.815 317.469C360.088 321.442 360.755 324.963 362.297 327.178L289.648 187.023" stroke="#6B4B4B" stroke-width="31.0055" stroke-linejoin="round"/>
<path d="M359.815 317.469C360.088 321.442 360.755 324.963 362.297 327.178L289.648 187.023" stroke="#6B4B4B" stroke-width="1.49963" stroke-linejoin="round"/>
<path d="M359.673 307.341C359.632 310.709 359.593 314.238 359.815 317.469L289.648 187.023" stroke="#6B4B4B" stroke-width="31.4926" stroke-linejoin="round"/>
<path d="M359.673 307.341C359.632 310.709 359.593 314.238 359.815 317.469L289.648 187.023" stroke="#6B4B4B" stroke-width="1.49963" stroke-linejoin="round"/>
<path d="M359.447 297.219C359.768 299.948 359.719 303.542 359.673 307.341L289.648 187.023" stroke="#6B4B4B" stroke-width="32.062" stroke-linejoin="round"/>
<path d="M359.447 297.219C359.768 299.948 359.719 303.542 359.673 307.341L289.648 187.023" stroke="#6B4B4B" stroke-width="1.49963" stroke-linejoin="round"/>
<path d="M352.817 293.001C353.424 293.095 354.185 292.959 355.112 292.562C357.879 291.377 359.008 293.49 359.447 297.219C360.592 306.949 289.648 187.023 289.648 187.023" stroke="#6B4B4B" stroke-width="32.6725" stroke-linejoin="round"/>
<path d="M352.817 293.001C353.424 293.095 354.185 292.959 355.112 292.562C357.879 291.377 359.008 293.49 359.447 297.219C360.592 306.949 289.648 187.023 289.648 187.023" stroke="#6B4B4B" stroke-width="1.49963" stroke-linejoin="round"/>
<path d="M351.848 283.839C350.415 288.991 350.508 292.647 352.817 293.001L289.648 187.023" stroke="#6B4B4B" stroke-width="33.2831" stroke-linejoin="round"/>
<path d="M351.848 283.839C350.415 288.991 350.508 292.647 352.817 293.001L289.648 187.023" stroke="#6B4B4B" stroke-width="1.49963" stroke-linejoin="round"/>
<path d="M355.438 274.376C353.862 277.78 352.628 281.032 351.848 283.839L289.648 187.023" stroke="#6B4B4B" stroke-width="33.8525" stroke-linejoin="round"/>
<path d="M355.438 274.376C353.862 277.78 352.628 281.032 351.848 283.839L289.648 187.023" stroke="#6B4B4B" stroke-width="1.49963" stroke-linejoin="round"/>
<path d="M360.193 265.436C358.402 268.405 356.794 271.447 355.438 274.376L289.648 187.023" stroke="#6B4B4B" stroke-width="34.3395" stroke-linejoin="round"/>
<path d="M360.193 265.436C358.402 268.405 356.794 271.447 355.438 274.376L289.648 187.023" stroke="#6B4B4B" stroke-width="1.49963" stroke-linejoin="round"/>
<path d="M365.922 257.087C363.882 259.682 361.95 262.524 360.193 265.436L289.648 187.023" stroke="#6B4B4B" stroke-width="34.7031" stroke-linejoin="round"/>
<path d="M365.922 257.087C363.882 259.682 361.95 262.524 360.193 265.436L289.648 187.023" stroke="#6B4B4B" stroke-width="1.49963" stroke-linejoin="round"/>
<path d="M372.863 249.73C370.48 251.742 368.137 254.269 365.922 257.087L289.648 187.023" stroke="#6B4B4B" stroke-width="34.9021" stroke-linejoin="round"/>
<path d="M372.863 249.73C370.48 251.742 368.137 254.269 365.922 257.087L289.648 187.023" stroke="#6B4B4B" stroke-width="1.49963" stroke-linejoin="round"/>
<path d="M380.994 245.204C378.314 245.835 375.562 247.453 372.863 249.73L289.648 187.023" stroke="#6B4B4B" stroke-width="34.9021" stroke-linejoin="round"/>
<path d="M380.994 245.204C378.314 245.835 375.562 247.453 372.863 249.73L289.648 187.023" stroke="#6B4B4B" stroke-width="1.49963" stroke-linejoin="round"/>
<path d="M389.784 247.33C389.178 246.872 388.543 246.456 387.877 246.084C385.697 244.862 383.374 244.644 380.994 245.204C378.314 245.835 289.648 187.023 289.648 187.023" stroke="#6B4B4B" stroke-width="34.7031" stroke-linejoin="round"/>
<path d="M389.784 247.33C389.178 246.872 388.543 246.456 387.877 246.084C385.697 244.862 383.374 244.644 380.994 245.204C378.314 245.835 289.648 187.023 289.648 187.023" stroke="#6B4B4B" stroke-width="1.49963" stroke-linejoin="round"/>
<path d="M395.683 254.538C394.149 251.63 392.197 249.152 389.784 247.33L289.648 187.023" stroke="#6B4B4B" stroke-width="34.3395" stroke-linejoin="round"/>
<path d="M395.683 254.538C394.149 251.63 392.197 249.152 389.784 247.33L289.648 187.023" stroke="#6B4B4B" stroke-width="1.49963" stroke-linejoin="round"/>
<path d="M398.856 263.348C398.121 260.169 397.074 257.177 395.683 254.538L289.648 187.023" stroke="#6B4B4B" stroke-width="33.8525" stroke-linejoin="round"/>
<path d="M398.856 263.348C398.121 260.169 397.074 257.177 395.683 254.538L289.648 187.023" stroke="#6B4B4B" stroke-width="1.49963" stroke-linejoin="round"/>
<path d="M400.123 272.639C399.958 269.471 399.544 266.328 398.856 263.348L289.648 187.023" stroke="#6B4B4B" stroke-width="33.2831" stroke-linejoin="round"/>
<path d="M400.123 272.639C399.958 269.471 399.544 266.328 398.856 263.348L289.648 187.023" stroke="#6B4B4B" stroke-width="1.49963" stroke-linejoin="round"/>
<path d="M399.902 282.017C400.205 278.957 400.287 275.786 400.123 272.639L289.648 187.023" stroke="#6B4B4B" stroke-width="32.6725" stroke-linejoin="round"/>
<path d="M399.902 282.017C400.205 278.957 400.287 275.786 400.123 272.639L289.648 187.023" stroke="#6B4B4B" stroke-width="1.49963" stroke-linejoin="round"/>
<path d="M398.221 291.243C399.01 288.402 399.581 285.273 399.902 282.017L289.648 187.023" stroke="#6B4B4B" stroke-width="32.062" stroke-linejoin="round"/>
<path d="M398.221 291.243C399.01 288.402 399.581 285.273 399.902 282.017L289.648 187.023" stroke="#6B4B4B" stroke-width="1.49963" stroke-linejoin="round"/>
<path d="M394.547 299.845C396.045 297.563 397.286 294.606 398.221 291.243L289.648 187.023" stroke="#6B4B4B" stroke-width="31.4926" stroke-linejoin="round"/>
<path d="M394.547 299.845C396.045 297.563 397.286 294.606 398.221 291.243L289.648 187.023" stroke="#6B4B4B" stroke-width="1.49963" stroke-linejoin="round"/>
<path d="M389.383 307.562C390.271 305.684 391.001 304.133 391.586 303.162C392.658 302.339 393.648 301.213 394.547 299.845C402.735 287.371 289.648 187.023 289.648 187.023" stroke="#6B4B4B" stroke-width="31.0055" stroke-linejoin="round"/>
<path d="M389.383 307.562C390.271 305.684 391.001 304.133 391.586 303.162C392.658 302.339 393.648 301.213 394.547 299.845C402.735 287.371 289.648 187.023 289.648 187.023" stroke="#6B4B4B" stroke-width="1.49963" stroke-linejoin="round"/>
<path d="M385.131 315.93C386.829 312.96 388.237 309.988 389.383 307.562L289.648 187.023" stroke="#6B4B4B" stroke-width="30.6419" stroke-linejoin="round"/>
<path d="M385.131 315.93C386.829 312.96 388.237 309.988 389.383 307.562L289.648 187.023" stroke="#6B4B4B" stroke-width="1.49963" stroke-linejoin="round"/>
<path d="M379.769 323.617C381.808 321.329 383.589 318.63 385.131 315.93L289.648 187.023" stroke="#6B4B4B" stroke-width="30.443" stroke-linejoin="round"/>
<path d="M379.769 323.617C381.808 321.329 383.589 318.63 385.131 315.93L289.648 187.023" stroke="#6B4B4B" stroke-width="1.49963" stroke-linejoin="round"/>
<path d="M423.322 319.633C423.332 319.493 423.339 319.352 423.342 319.209C423.365 318.183 423.335 317.209 423.257 316.285L289.648 187.023" stroke="#6B4B4B" stroke-width="37.7177" stroke-linejoin="round"/>
<path d="M423.322 319.633C423.332 319.493 423.339 319.352 423.342 319.209C423.365 318.183 423.335 317.209 423.257 316.285L289.648 187.023" stroke="#6B4B4B" stroke-width="4.53075" stroke-linejoin="round"/>
<path d="M422.399 322.829C422.921 321.861 423.239 320.798 423.322 319.633L289.648 187.023" stroke="#6B4B4B" stroke-width="37.5765" stroke-linejoin="round"/>
<path d="M422.399 322.829C422.921 321.861 423.239 320.798 423.322 319.633L289.648 187.023" stroke="#6B4B4B" stroke-width="4.53395" stroke-linejoin="round"/>
<path d="M420.296 325.416C421.176 324.64 421.887 323.78 422.399 322.829L289.648 187.023" stroke="#6B4B4B" stroke-width="37.3082" stroke-linejoin="round"/>
<path d="M420.296 325.416C421.176 324.64 421.887 323.78 422.399 322.829L289.648 187.023" stroke="#6B4B4B" stroke-width="4.54003" stroke-linejoin="round"/>
<path d="M417.537 327.305C418.58 326.74 419.506 326.112 420.296 325.416L289.648 187.023" stroke="#6B4B4B" stroke-width="36.9297" stroke-linejoin="round"/>
<path d="M417.537 327.305C418.58 326.74 419.506 326.112 420.296 325.416L289.648 187.023" stroke="#6B4B4B" stroke-width="4.5486" stroke-linejoin="round"/>
<path d="M414.48 328.672C415.582 328.264 416.606 327.81 417.537 327.305L289.648 187.023" stroke="#6B4B4B" stroke-width="36.4581" stroke-linejoin="round"/>
<path d="M414.48 328.672C415.582 328.264 416.606 327.81 417.537 327.305L289.648 187.023" stroke="#6B4B4B" stroke-width="4.55929" stroke-linejoin="round"/>
<path d="M411.283 329.674C412.406 329.377 413.476 329.044 414.48 328.672L289.648 187.023" stroke="#6B4B4B" stroke-width="35.9102" stroke-linejoin="round"/>
<path d="M411.283 329.674C412.406 329.377 413.476 329.044 414.48 328.672L289.648 187.023" stroke="#6B4B4B" stroke-width="4.5717" stroke-linejoin="round"/>
<path d="M408.015 330.412C409.145 330.196 410.237 329.95 411.283 329.674L289.648 187.023" stroke="#6B4B4B" stroke-width="35.303" stroke-linejoin="round"/>
<path d="M408.015 330.412C409.145 330.196 410.237 329.95 411.283 329.674L289.648 187.023" stroke="#6B4B4B" stroke-width="4.58545" stroke-linejoin="round"/>
<path d="M404.707 330.952C405.839 330.797 406.944 330.618 408.015 330.412L289.648 187.023" stroke="#6B4B4B" stroke-width="34.6535" stroke-linejoin="round"/>
<path d="M404.707 330.952C405.839 330.797 406.944 330.618 408.015 330.412L289.648 187.023" stroke="#6B4B4B" stroke-width="4.60017" stroke-linejoin="round"/>
<path d="M401.378 331.335C402.508 331.228 403.62 331.101 404.707 330.952L289.648 187.023" stroke="#6B4B4B" stroke-width="33.9785" stroke-linejoin="round"/>
<path d="M401.378 331.335C402.508 331.228 403.62 331.101 404.707 330.952L289.648 187.023" stroke="#6B4B4B" stroke-width="4.61546" stroke-linejoin="round"/>
<path d="M398.036 331.589C399.163 331.523 400.279 331.438 401.378 331.335L289.648 187.023" stroke="#6B4B4B" stroke-width="33.295" stroke-linejoin="round"/>
<path d="M398.036 331.589C399.163 331.523 400.279 331.438 401.378 331.335L289.648 187.023" stroke="#6B4B4B" stroke-width="4.63094" stroke-linejoin="round"/>
<path d="M394.688 331.735C395.811 331.703 396.929 331.654 398.036 331.589L289.648 187.023" stroke="#6B4B4B" stroke-width="32.6201" stroke-linejoin="round"/>
<path d="M394.688 331.735C395.811 331.703 396.929 331.654 398.036 331.589L289.648 187.023" stroke="#6B4B4B" stroke-width="4.64623" stroke-linejoin="round"/>
<path d="M391.337 331.786C392.455 331.783 393.574 331.767 394.688 331.735L289.648 187.023" stroke="#6B4B4B" stroke-width="31.9705" stroke-linejoin="round"/>
<path d="M391.337 331.786C392.455 331.783 393.574 331.767 394.688 331.735L289.648 187.023" stroke="#6B4B4B" stroke-width="4.66095" stroke-linejoin="round"/>
<path d="M387.986 331.752C389.098 331.777 390.217 331.788 391.337 331.786L289.648 187.023" stroke="#6B4B4B" stroke-width="31.3633" stroke-linejoin="round"/>
<path d="M387.986 331.752C389.098 331.777 390.217 331.788 391.337 331.786L289.648 187.023" stroke="#6B4B4B" stroke-width="4.6747" stroke-linejoin="round"/>
<path d="M384.636 331.641C385.742 331.69 386.86 331.728 387.986 331.752L289.648 187.023" stroke="#6B4B4B" stroke-width="30.8154" stroke-linejoin="round"/>
<path d="M384.636 331.641C385.742 331.69 386.86 331.728 387.986 331.752L289.648 187.023" stroke="#6B4B4B" stroke-width="4.68712" stroke-linejoin="round"/>
<path d="M381.29 331.455C382.388 331.528 383.505 331.59 384.636 331.641L289.648 187.023" stroke="#6B4B4B" stroke-width="30.3438" stroke-linejoin="round"/>
<path d="M381.29 331.455C382.388 331.528 383.505 331.59 384.636 331.641L289.648 187.023" stroke="#6B4B4B" stroke-width="4.6978" stroke-linejoin="round"/>
<path d="M377.949 331.197C379.036 331.293 380.152 331.38 381.29 331.455L289.648 187.023" stroke="#6B4B4B" stroke-width="29.9654" stroke-linejoin="round"/>
<path d="M377.949 331.197C379.036 331.293 380.152 331.38 381.29 331.455L289.648 187.023" stroke="#6B4B4B" stroke-width="4.70637" stroke-linejoin="round"/>
<path d="M374.614 330.864C375.688 330.984 376.802 331.096 377.949 331.197L289.648 187.023" stroke="#6B4B4B" stroke-width="29.6971" stroke-linejoin="round"/>
<path d="M374.614 330.864C375.688 330.984 376.802 331.096 377.949 331.197L289.648 187.023" stroke="#6B4B4B" stroke-width="4.71245" stroke-linejoin="round"/>
<path d="M371.288 330.449C372.343 330.595 373.455 330.734 374.614 330.864L289.648 187.023" stroke="#6B4B4B" stroke-width="29.5559" stroke-linejoin="round"/>
<path d="M371.288 330.449C372.343 330.595 373.455 330.734 374.614 330.864L289.648 187.023" stroke="#6B4B4B" stroke-width="4.71565" stroke-linejoin="round"/>
<path d="M366.411 329.646C367.833 329.926 369.477 330.198 371.288 330.449L289.648 187.023" stroke="#6B4B4B" stroke-width="29.5559" stroke-linejoin="round"/>
<path d="M366.411 329.646C367.833 329.926 369.477 330.198 371.288 330.449L289.648 187.023" stroke="#6B4B4B" stroke-width="4.71565" stroke-linejoin="round"/>
<path d="M362.581 327.092C362.741 328.236 363.687 329.079 365.643 329.49C365.891 329.542 366.147 329.595 366.411 329.646C367.833 329.926 289.648 187.023 289.648 187.023" stroke="#6B4B4B" stroke-width="29.6971" stroke-linejoin="round"/>
<path d="M362.581 327.092C362.741 328.236 363.687 329.079 365.643 329.49C365.891 329.542 366.147 329.595 366.411 329.646C367.833 329.926 289.648 187.023 289.648 187.023" stroke="#6B4B4B" stroke-width="4.71245" stroke-linejoin="round"/>
<path d="M364.423 322.627C363.113 324.35 362.412 325.888 362.581 327.092L289.648 187.023" stroke="#6B4B4B" stroke-width="29.9654" stroke-linejoin="round"/>
<path d="M364.423 322.627C363.113 324.35 362.412 325.888 362.581 327.092L289.648 187.023" stroke="#6B4B4B" stroke-width="4.70637" stroke-linejoin="round"/>
<path d="M367.765 318.992C366.433 320.256 365.294 321.482 364.423 322.627L289.648 187.023" stroke="#6B4B4B" stroke-width="30.3438" stroke-linejoin="round"/>
<path d="M367.765 318.992C366.433 320.256 365.294 321.482 364.423 322.627L289.648 187.023" stroke="#6B4B4B" stroke-width="4.6978" stroke-linejoin="round"/>
<path d="M371.493 315.747C370.144 316.837 368.887 317.928 367.765 318.992L289.648 187.023" stroke="#6B4B4B" stroke-width="30.8154" stroke-linejoin="round"/>
<path d="M371.493 315.747C370.144 316.837 368.887 317.928 367.765 318.992L289.648 187.023" stroke="#6B4B4B" stroke-width="4.68712" stroke-linejoin="round"/>
<path d="M375.421 312.747C374.059 313.733 372.737 314.74 371.493 315.747L289.648 187.023" stroke="#6B4B4B" stroke-width="31.3633" stroke-linejoin="round"/>
<path d="M375.421 312.747C374.059 313.733 372.737 314.74 371.493 315.747L289.648 187.023" stroke="#6B4B4B" stroke-width="4.6747" stroke-linejoin="round"/>
<path d="M379.49 309.94C378.117 310.843 376.75 311.785 375.421 312.747L289.648 187.023" stroke="#6B4B4B" stroke-width="31.9705" stroke-linejoin="round"/>
<path d="M379.49 309.94C378.117 310.843 376.75 311.785 375.421 312.747L289.648 187.023" stroke="#6B4B4B" stroke-width="4.66095" stroke-linejoin="round"/>
<path d="M383.679 307.315C382.301 308.136 380.893 309.018 379.49 309.94L289.648 187.023" stroke="#6B4B4B" stroke-width="32.6201" stroke-linejoin="round"/>
<path d="M383.679 307.315C382.301 308.136 380.893 309.018 379.49 309.94L289.648 187.023" stroke="#6B4B4B" stroke-width="4.64623" stroke-linejoin="round"/>
<path d="M387.99 304.897C386.617 305.615 385.166 306.43 383.679 307.315L289.648 187.023" stroke="#6B4B4B" stroke-width="33.295" stroke-linejoin="round"/>
<path d="M387.99 304.897C386.617 305.615 385.166 306.43 383.679 307.315L289.648 187.023" stroke="#6B4B4B" stroke-width="4.63094" stroke-linejoin="round"/>
<path d="M392.465 302.802C392.161 302.919 391.868 303.039 391.586 303.162C390.48 303.642 389.27 304.228 387.99 304.897C374.972 311.707 289.648 187.023 289.648 187.023" stroke="#6B4B4B" stroke-width="33.9785" stroke-linejoin="round"/>
<path d="M392.465 302.802C392.161 302.919 391.868 303.039 391.586 303.162C390.48 303.642 389.27 304.228 387.99 304.897C374.972 311.707 289.648 187.023 289.648 187.023" stroke="#6B4B4B" stroke-width="4.61546" stroke-linejoin="round"/>
<path d="M397.207 301.424C395.468 301.788 393.858 302.264 392.465 302.802L289.648 187.023" stroke="#6B4B4B" stroke-width="34.6535" stroke-linejoin="round"/>
<path d="M397.207 301.424C395.468 301.788 393.858 302.264 392.465 302.802L289.648 187.023" stroke="#6B4B4B" stroke-width="4.60017" stroke-linejoin="round"/>
<path d="M402.1 300.751C400.409 300.864 398.757 301.1 397.207 301.424L289.648 187.023" stroke="#6B4B4B" stroke-width="35.303" stroke-linejoin="round"/>
<path d="M402.1 300.751C400.409 300.864 398.757 301.1 397.207 301.424L289.648 187.023" stroke="#6B4B4B" stroke-width="4.58545" stroke-linejoin="round"/>
<path d="M407.039 300.797C405.393 300.647 403.728 300.642 402.1 300.751L289.648 187.023" stroke="#6B4B4B" stroke-width="35.9102" stroke-linejoin="round"/>
<path d="M407.039 300.797C405.393 300.647 403.728 300.642 402.1 300.751L289.648 187.023" stroke="#6B4B4B" stroke-width="4.5717" stroke-linejoin="round"/>
<path d="M411.886 301.721C410.327 301.246 408.692 300.948 407.039 300.797L289.648 187.023" stroke="#6B4B4B" stroke-width="36.4581" stroke-linejoin="round"/>
<path d="M411.886 301.721C410.327 301.246 408.692 300.948 407.039 300.797L289.648 187.023" stroke="#6B4B4B" stroke-width="4.55929" stroke-linejoin="round"/>
<path d="M416.369 303.767C414.994 302.877 413.48 302.206 411.886 301.721L289.648 187.023" stroke="#6B4B4B" stroke-width="36.9297" stroke-linejoin="round"/>
<path d="M416.369 303.767C414.994 302.877 413.48 302.206 411.886 301.721L289.648 187.023" stroke="#6B4B4B" stroke-width="4.5486" stroke-linejoin="round"/>
<path d="M419.99 307.096C418.959 305.749 417.733 304.65 416.369 303.767L289.648 187.023" stroke="#6B4B4B" stroke-width="37.3082" stroke-linejoin="round"/>
<path d="M419.99 307.096C418.959 305.749 417.733 304.65 416.369 303.767L289.648 187.023" stroke="#6B4B4B" stroke-width="4.54003" stroke-linejoin="round"/>
<path d="M422.284 311.45C421.714 309.774 420.935 308.331 419.99 307.096L289.648 187.023" stroke="#6B4B4B" stroke-width="37.5765" stroke-linejoin="round"/>
<path d="M422.284 311.45C421.714 309.774 420.935 308.331 419.99 307.096L289.648 187.023" stroke="#6B4B4B" stroke-width="4.53395" stroke-linejoin="round"/>
<path d="M423.257 316.285C423.105 314.492 422.772 312.885 422.284 311.45L289.648 187.023" stroke="#6B4B4B" stroke-width="37.7177" stroke-linejoin="round"/>
<path d="M423.257 316.285C423.105 314.492 422.772 312.885 422.284 311.45L289.648 187.023" stroke="#6B4B4B" stroke-width="4.53075" stroke-linejoin="round"/>
<path d="M395.441 298.348C395.937 297.438 396.4 296.448 396.826 295.391L289.648 187.023" stroke="#6B4B4B" stroke-width="22.277" stroke-linejoin="round"/>
<path d="M395.441 298.348C395.937 297.438 396.4 296.448 396.826 295.391L289.648 187.023" stroke="#6B4B4B" stroke-width="0.0862111" stroke-linejoin="round"/>
<path d="M393.656 301.082C394.291 300.281 394.887 299.364 395.441 298.348L289.648 187.023" stroke="#6B4B4B" stroke-width="22.358" stroke-linejoin="round"/>
<path d="M393.656 301.082C394.291 300.281 394.887 299.364 395.441 298.348L289.648 187.023" stroke="#6B4B4B" stroke-width="0.51273" stroke-linejoin="round"/>
<path d="M391.421 303.443C391.477 303.345 391.532 303.251 391.586 303.162C392.315 302.602 393.006 301.903 393.656 301.082C397.254 296.542 289.648 187.023 289.648 187.023" stroke="#6B4B4B" stroke-width="22.4287" stroke-linejoin="round"/>
<path d="M391.421 303.443C391.477 303.345 391.532 303.251 391.586 303.162C392.315 302.602 393.006 301.903 393.656 301.082C397.254 296.542 289.648 187.023 289.648 187.023" stroke="#6B4B4B" stroke-width="1.20546" stroke-linejoin="round"/>
<path d="M389.952 306.361C390.513 305.181 391.002 304.181 391.421 303.443L289.648 187.023" stroke="#6B4B4B" stroke-width="22.4824" stroke-linejoin="round"/>
<path d="M389.952 306.361C390.513 305.181 391.002 304.181 391.421 303.443L289.648 187.023" stroke="#6B4B4B" stroke-width="2.22059" stroke-linejoin="round"/>
<path d="M388.551 309.314C389.061 308.25 389.527 307.254 389.952 306.361L289.648 187.023" stroke="#6B4B4B" stroke-width="22.512" stroke-linejoin="round"/>
<path d="M388.551 309.314C389.061 308.25 389.527 307.254 389.952 306.361L289.648 187.023" stroke="#6B4B4B" stroke-width="3.61433" stroke-linejoin="round"/>
<path d="M392.812 317.886C396.42 317.886 399.344 314.962 399.344 311.355C399.344 307.748 396.42 304.823 392.812 304.823C389.205 304.823 386.281 307.748 386.281 311.355C386.281 314.962 389.205 317.886 392.812 317.886Z" fill="#6B4B4B"/>
<path d="M333.701 221.966C333.799 221.281 333.893 220.597 333.982 219.914L289.648 187.023" stroke="#6B4B4B" stroke-width="18.4472" stroke-linejoin="round"/>
<path d="M333.701 221.966C333.799 221.281 333.893 220.597 333.982 219.914L289.648 187.023" stroke="#6B4B4B" stroke-width="1.49963" stroke-linejoin="round"/>
<path d="M338.183 225.448C340.938 225.448 343.17 223.215 343.17 220.461C343.17 217.707 340.938 215.474 338.183 215.474C335.429 215.474 333.197 217.707 333.197 220.461C333.197 223.215 335.429 225.448 338.183 225.448Z" fill="#6B4B4B"/>
<path d="M333.393 224.014C333.5 223.331 333.603 222.648 333.701 221.966L289.648 187.023" stroke="#6B4B4B" stroke-width="18.5758" stroke-linejoin="round"/>
<path d="M333.393 224.014C333.5 223.331 333.603 222.648 333.701 221.966L289.648 187.023" stroke="#6B4B4B" stroke-width="1.49963" stroke-linejoin="round"/>
<path d="M333.062 226.058C333.176 225.376 333.287 224.695 333.393 224.014L289.648 187.023" stroke="#6B4B4B" stroke-width="18.8216" stroke-linejoin="round"/>
<path d="M333.062 226.058C333.176 225.376 333.287 224.695 333.393 224.014L289.648 187.023" stroke="#6B4B4B" stroke-width="1.49963" stroke-linejoin="round"/>
<path d="M332.709 228.098C332.83 227.419 332.948 226.738 333.062 226.058L289.648 187.023" stroke="#6B4B4B" stroke-width="19.1708" stroke-linejoin="round"/>
<path d="M332.709 228.098C332.83 227.419 332.948 226.738 333.062 226.058L289.648 187.023" stroke="#6B4B4B" stroke-width="1.49963" stroke-linejoin="round"/>
<path d="M332.335 230.135C332.463 229.457 332.587 228.778 332.709 228.098L289.648 187.023" stroke="#6B4B4B" stroke-width="19.6095" stroke-linejoin="round"/>
<path d="M332.335 230.135C332.463 229.457 332.587 228.778 332.709 228.098L289.648 187.023" stroke="#6B4B4B" stroke-width="1.49963" stroke-linejoin="round"/>
<path d="M331.944 232.168C332.077 231.492 332.208 230.814 332.335 230.135L289.648 187.023" stroke="#6B4B4B" stroke-width="20.1241" stroke-linejoin="round"/>
<path d="M331.944 232.168C332.077 231.492 332.208 230.814 332.335 230.135L289.648 187.023" stroke="#6B4B4B" stroke-width="1.49963" stroke-linejoin="round"/>
<path d="M331.537 234.199C331.675 233.524 331.811 232.847 331.944 232.168L289.648 187.023" stroke="#6B4B4B" stroke-width="20.7006" stroke-linejoin="round"/>
<path d="M331.537 234.199C331.675 233.524 331.811 232.847 331.944 232.168L289.648 187.023" stroke="#6B4B4B" stroke-width="1.49963" stroke-linejoin="round"/>
<path d="M331.116 236.226C331.258 235.553 331.399 234.877 331.537 234.199L289.648 187.023" stroke="#6B4B4B" stroke-width="21.3255" stroke-linejoin="round"/>
<path d="M331.116 236.226C331.258 235.553 331.399 234.877 331.537 234.199L289.648 187.023" stroke="#6B4B4B" stroke-width="1.49963" stroke-linejoin="round"/>
<path d="M330.682 238.251C330.828 237.579 330.973 236.904 331.116 236.226L289.648 187.023" stroke="#6B4B4B" stroke-width="21.9847" stroke-linejoin="round"/>
<path d="M330.682 238.251C330.828 237.579 330.973 236.904 331.116 236.226L289.648 187.023" stroke="#6B4B4B" stroke-width="1.49963" stroke-linejoin="round"/>
<path d="M330.237 240.273C330.386 239.603 330.535 238.929 330.682 238.251L289.648 187.023" stroke="#6B4B4B" stroke-width="22.6647" stroke-linejoin="round"/>
<path d="M330.237 240.273C330.386 239.603 330.535 238.929 330.682 238.251L289.648 187.023" stroke="#6B4B4B" stroke-width="1.49963" stroke-linejoin="round"/>
<path d="M329.783 242.293C329.934 241.625 330.086 240.951 330.237 240.273L289.648 187.023" stroke="#6B4B4B" stroke-width="23.3515" stroke-linejoin="round"/>
<path d="M329.783 242.293C329.934 241.625 330.086 240.951 330.237 240.273L289.648 187.023" stroke="#6B4B4B" stroke-width="1.49963" stroke-linejoin="round"/>
<path d="M329.321 244.312C329.475 243.645 329.629 242.971 329.783 242.293L289.648 187.023" stroke="#6B4B4B" stroke-width="24.0315" stroke-linejoin="round"/>
<path d="M329.321 244.312C329.475 243.645 329.629 242.971 329.783 242.293L289.648 187.023" stroke="#6B4B4B" stroke-width="1.49963" stroke-linejoin="round"/>
<path d="M328.853 246.329C329.008 245.663 329.164 244.99 329.321 244.312L289.648 187.023" stroke="#6B4B4B" stroke-width="24.6907" stroke-linejoin="round"/>
<path d="M328.853 246.329C329.008 245.663 329.164 244.99 329.321 244.312L289.648 187.023" stroke="#6B4B4B" stroke-width="1.49963" stroke-linejoin="round"/>
<path d="M328.382 248.346C328.538 247.681 328.695 247.008 328.853 246.329L289.648 187.023" stroke="#6B4B4B" stroke-width="25.3156" stroke-linejoin="round"/>
<path d="M328.382 248.346C328.538 247.681 328.695 247.008 328.853 246.329L289.648 187.023" stroke="#6B4B4B" stroke-width="1.49963" stroke-linejoin="round"/>
<path d="M327.909 250.362C328.065 249.698 328.223 249.026 328.382 248.346L289.648 187.023" stroke="#6B4B4B" stroke-width="25.8921" stroke-linejoin="round"/>
<path d="M327.909 250.362C328.065 249.698 328.223 249.026 328.382 248.346L289.648 187.023" stroke="#6B4B4B" stroke-width="1.49963" stroke-linejoin="round"/>
<path d="M327.438 252.378C327.592 251.715 327.75 251.043 327.909 250.362L289.648 187.023" stroke="#6B4B4B" stroke-width="26.4067" stroke-linejoin="round"/>
<path d="M327.438 252.378C327.592 251.715 327.75 251.043 327.909 250.362L289.648 187.023" stroke="#6B4B4B" stroke-width="1.49963" stroke-linejoin="round"/>
<path d="M326.97 254.395C327.123 253.734 327.279 253.061 327.438 252.378L289.648 187.023" stroke="#6B4B4B" stroke-width="26.8454" stroke-linejoin="round"/>
<path d="M326.97 254.395C327.123 253.734 327.279 253.061 327.438 252.378L289.648 187.023" stroke="#6B4B4B" stroke-width="1.49963" stroke-linejoin="round"/>
<path d="M326.51 256.414C326.659 255.754 326.812 255.08 326.97 254.395L289.648 187.023" stroke="#6B4B4B" stroke-width="27.1946" stroke-linejoin="round"/>
<path d="M326.51 256.414C326.659 255.754 326.812 255.08 326.97 254.395L289.648 187.023" stroke="#6B4B4B" stroke-width="1.49963" stroke-linejoin="round"/>
<path d="M326.062 258.436C326.205 257.777 326.355 257.102 326.51 256.414L289.648 187.023" stroke="#6B4B4B" stroke-width="27.4404" stroke-linejoin="round"/>
<path d="M326.062 258.436C326.205 257.777 326.355 257.102 326.51 256.414L289.648 187.023" stroke="#6B4B4B" stroke-width="1.49963" stroke-linejoin="round"/>
<path d="M325.631 260.461C325.767 259.803 325.911 259.128 326.062 258.436L289.648 187.023" stroke="#6B4B4B" stroke-width="27.569" stroke-linejoin="round"/>
<path d="M325.631 260.461C325.767 259.803 325.911 259.128 326.062 258.436L289.648 187.023" stroke="#6B4B4B" stroke-width="1.49963" stroke-linejoin="round"/>
<path d="M332.014 269.048C336.027 269.048 339.281 265.794 339.281 261.78C339.281 257.767 336.027 254.513 332.014 254.513C328 254.513 324.747 257.767 324.747 261.78C324.747 265.794 328 269.048 332.014 269.048Z" fill="#6B4B4B"/>
<path d="M355.299 298.277C355.695 297.74 356.093 297.22 356.497 296.72L289.648 187.023" stroke="#6B4B4B" stroke-width="26.2004" stroke-linejoin="round"/>
<path d="M355.299 298.277C355.695 297.74 356.093 297.22 356.497 296.72L289.648 187.023" stroke="#6B4B4B" stroke-width="0.0688936" stroke-linejoin="round"/>
<path d="M360.555 308.723C364.182 308.723 367.122 305.783 367.122 302.156C367.122 298.529 364.182 295.589 360.555 295.589C356.928 295.589 353.988 298.529 353.988 302.156C353.988 305.783 356.928 308.723 360.555 308.723Z" fill="#6B4B4B"/>
<path d="M356.497 296.72C356.917 296.201 357.342 295.703 357.779 295.23L289.648 187.023" stroke="#6B4B4B" stroke-width="26.3052" stroke-linejoin="round"/>
<path d="M356.497 296.72C356.917 296.201 357.342 295.703 357.779 295.23L289.648 187.023" stroke="#6B4B4B" stroke-width="0.319416" stroke-linejoin="round"/>
<path d="M357.779 295.23C358.229 294.741 358.692 294.278 359.17 293.843L289.648 187.023" stroke="#6B4B4B" stroke-width="26.4812" stroke-linejoin="round"/>
<path d="M357.779 295.23C358.229 294.741 358.692 294.278 359.17 293.843L289.648 187.023" stroke="#6B4B4B" stroke-width="0.75783" stroke-linejoin="round"/>
<path d="M359.17 293.843C359.66 293.399 360.166 292.986 360.695 292.605L289.648 187.023" stroke="#6B4B4B" stroke-width="26.6881" stroke-linejoin="round"/>
<path d="M359.17 293.843C359.66 293.399 360.166 292.986 360.695 292.605L289.648 187.023" stroke="#6B4B4B" stroke-width="1.30898" stroke-linejoin="round"/>
<path d="M360.695 292.605C361.226 292.224 361.78 291.876 362.361 291.566L289.648 187.023" stroke="#6B4B4B" stroke-width="26.8856" stroke-linejoin="round"/>
<path d="M360.695 292.605C361.226 292.224 361.78 291.876 362.361 291.566L289.648 187.023" stroke="#6B4B4B" stroke-width="1.89771" stroke-linejoin="round"/>
<path d="M362.361 291.566C362.931 291.262 363.527 290.994 364.154 290.764L289.648 187.023" stroke="#6B4B4B" stroke-width="27.0332" stroke-linejoin="round"/>
<path d="M362.361 291.566C362.931 291.262 363.527 290.994 364.154 290.764L289.648 187.023" stroke="#6B4B4B" stroke-width="2.44885" stroke-linejoin="round"/>
<path d="M364.154 290.764C364.706 290.563 365.281 290.392 365.885 290.253C365.936 290.241 365.988 290.228 366.04 290.215C366.655 290.059 289.648 187.023 289.648 187.023" stroke="#6B4B4B" stroke-width="27.0907" stroke-linejoin="round"/>
<path d="M364.154 290.764C364.706 290.563 365.281 290.392 365.885 290.253C365.936 290.241 365.988 290.228 366.04 290.215C366.655 290.059 289.648 187.023 289.648 187.023" stroke="#6B4B4B" stroke-width="2.88727" stroke-linejoin="round"/>
<path d="M366.04 290.215C366.655 290.059 367.281 289.863 367.915 289.63L289.648 187.023" stroke="#6B4B4B" stroke-width="27.0177" stroke-linejoin="round"/>
<path d="M366.04 290.215C366.655 290.059 367.281 289.863 367.915 289.63L289.648 187.023" stroke="#6B4B4B" stroke-width="3.13779" stroke-linejoin="round"/>
<path d="M369.977 302.771C374.141 302.771 377.516 299.396 377.516 295.232C377.516 291.068 374.141 287.693 369.977 287.693C365.814 287.693 362.438 291.068 362.438 295.232C362.438 299.396 365.814 302.771 369.977 302.771Z" fill="#6B4B4B"/>
<path fill-rule="evenodd" clip-rule="evenodd" d="M336.127 170.148L302.291 264.113L260.55 263.498L264.627 158.645L336.127 170.148Z" fill="white"/>
<path fill-rule="evenodd" clip-rule="evenodd" d="M391.586 303.162C379.236 308.531 353.741 326.984 365.643 329.49C380.368 332.59 422.984 335.079 423.342 319.209C423.819 297.654 401.191 298.986 391.586 303.162Z" fill="#E3A7A7"/>
<path fill-rule="evenodd" clip-rule="evenodd" d="M387.877 246.084C369.181 235.599 339.954 299.054 355.112 292.562C365.1 288.285 353.741 326.985 365.643 329.49C380.368 332.59 388.283 308.644 391.586 303.162C402.427 294.835 404.954 255.621 387.877 246.084Z" fill="#E3A7A7"/>
<path fill-rule="evenodd" clip-rule="evenodd" d="M327.433 250.796C305.198 260.793 197.382 331.319 289.945 330.484C355.198 329.873 347.181 294.556 365.885 290.253C381.706 286.409 404.954 255.621 387.878 246.084C369.181 235.599 348.461 242.031 327.433 250.796Z" fill="#E3A7A7"/>
<path fill-rule="evenodd" clip-rule="evenodd" d="M333.29 192.209C328.696 161.628 250.903 183.715 256.036 189.121C279.497 213.831 197.382 331.319 289.945 330.484C355.198 329.873 329.438 275.981 325.384 274.188C319.167 269.472 341.004 219.818 333.29 192.209Z" fill="#E3A7A7"/>
<path fill-rule="evenodd" clip-rule="evenodd" d="M314.762 19.8386C323.109 20.7231 375.464 29.2206 386.762 75.0688C394.232 105.384 355.863 171.693 349.213 183.49C352.59 207.561 331.56 219.36 327.085 217.83C322.61 216.299 324.98 197.592 311.744 193.665C298.2 189.647 276.331 211.61 252.762 189.176C238.26 175.372 254.122 162.496 254.122 162.496C254.122 162.496 224.104 92.0382 236.207 55.7108C250.581 12.5673 306.415 18.9541 314.762 19.8386Z" fill="#E3A7A7"/>
<path d="M336.045 214.629C334.064 215.997 332.156 216.947 330.56 217.473L289.648 187.023" stroke="#6B4B4B" stroke-width="29.7467" stroke-linejoin="round"/>
<path d="M336.045 214.629C334.064 215.997 332.156 216.947 330.56 217.473L289.648 187.023" stroke="#6B4B4B" stroke-width="1.50244" stroke-linejoin="round"/>
<path d="M332.771 231.992C337.085 231.992 340.583 228.494 340.583 224.179C340.583 219.865 337.085 216.367 332.771 216.367C328.456 216.367 324.958 219.865 324.958 224.179C324.958 228.494 328.456 231.992 332.771 231.992Z" fill="#6B4B4B"/>
<path d="M340.756 210.616C339.217 212.212 337.608 213.551 336.045 214.629L289.648 187.023" stroke="#6B4B4B" stroke-width="29.8339" stroke-linejoin="round"/>
<path d="M340.756 210.616C339.217 212.212 337.608 213.551 336.045 214.629L289.648 187.023" stroke="#6B4B4B" stroke-width="1.51323" stroke-linejoin="round"/>
<path d="M344.602 205.768C343.429 207.584 342.12 209.201 340.756 210.616L289.648 187.023" stroke="#6B4B4B" stroke-width="30.0029" stroke-linejoin="round"/>
<path d="M344.602 205.768C343.429 207.584 342.12 209.201 340.756 210.616L289.648 187.023" stroke="#6B4B4B" stroke-width="1.53372" stroke-linejoin="round"/>
<path d="M347.425 200.261C346.641 202.264 345.679 204.1 344.602 205.768L289.648 187.023" stroke="#6B4B4B" stroke-width="30.2471" stroke-linejoin="round"/>
<path d="M347.425 200.261C346.641 202.264 345.679 204.1 344.602 205.768L289.648 187.023" stroke="#6B4B4B" stroke-width="1.56264" stroke-linejoin="round"/>
<path d="M349.092 194.302C348.72 196.429 348.148 198.416 347.425 200.261L289.648 187.023" stroke="#6B4B4B" stroke-width="30.56" stroke-linejoin="round"/>
<path d="M349.092 194.302C348.72 196.429 348.148 198.416 347.425 200.261L289.648 187.023" stroke="#6B4B4B" stroke-width="1.59867" stroke-linejoin="round"/>
<path d="M349.575 188.131C349.605 190.304 349.432 192.361 349.092 194.302L289.648 187.023" stroke="#6B4B4B" stroke-width="30.935" stroke-linejoin="round"/>
<path d="M349.575 188.131C349.605 190.304 349.432 192.361 349.092 194.302L289.648 187.023" stroke="#6B4B4B" stroke-width="1.64053" stroke-linejoin="round"/>
<path d="M349.971 182.149C349.686 182.653 349.432 183.101 349.213 183.49C349.437 185.091 349.554 186.638 349.575 188.131C349.813 205.293 289.648 187.023 289.648 187.023" stroke="#6B4B4B" stroke-width="31.3656" stroke-linejoin="round"/>
<path d="M349.971 182.149C349.686 182.653 349.432 183.101 349.213 183.49C349.437 185.091 349.554 186.638 349.575 188.131C349.813 205.293 289.648 187.023 289.648 187.023" stroke="#6B4B4B" stroke-width="1.68692" stroke-linejoin="round"/>
<path d="M353.009 176.746C351.793 178.93 350.761 180.754 349.971 182.149L289.648 187.023" stroke="#6B4B4B" stroke-width="31.8453" stroke-linejoin="round"/>
<path d="M353.009 176.746C351.793 178.93 350.761 180.754 349.971 182.149L289.648 187.023" stroke="#6B4B4B" stroke-width="1.73654" stroke-linejoin="round"/>
<path d="M355.998 171.315C354.916 173.305 353.912 175.125 353.009 176.746L289.648 187.023" stroke="#6B4B4B" stroke-width="32.3676" stroke-linejoin="round"/>
<path d="M355.998 171.315C354.916 173.305 353.912 175.125 353.009 176.746L289.648 187.023" stroke="#6B4B4B" stroke-width="1.78811" stroke-linejoin="round"/>
<path d="M358.927 165.853C357.904 167.787 356.922 169.613 355.998 171.316L289.648 187.023" stroke="#6B4B4B" stroke-width="32.9258" stroke-linejoin="round"/>
<path d="M358.927 165.853C357.904 167.787 356.922 169.613 355.998 171.316L289.648 187.023" stroke="#6B4B4B" stroke-width="1.84032" stroke-linejoin="round"/>
<path d="M361.792 160.356C360.811 162.267 359.852 164.104 358.927 165.853L289.648 187.023" stroke="#6B4B4B" stroke-width="33.5135" stroke-linejoin="round"/>
<path d="M361.792 160.356C360.811 162.267 359.852 164.104 358.927 165.853L289.648 187.023" stroke="#6B4B4B" stroke-width="1.89189" stroke-linejoin="round"/>
<path d="M364.589 154.825C363.643 156.726 362.708 158.574 361.792 160.356L289.648 187.022" stroke="#6B4B4B" stroke-width="34.124" stroke-linejoin="round"/>
<path d="M364.589 154.825C363.643 156.726 362.708 158.574 361.792 160.356L289.648 187.022" stroke="#6B4B4B" stroke-width="1.94152" stroke-linejoin="round"/>
<path d="M367.312 149.256C366.4 151.156 365.49 153.015 364.589 154.825L289.648 187.023" stroke="#6B4B4B" stroke-width="34.751" stroke-linejoin="round"/>
<path d="M367.312 149.256C366.4 151.156 365.49 153.015 364.589 154.825L289.648 187.023" stroke="#6B4B4B" stroke-width="1.9879" stroke-linejoin="round"/>
<path d="M369.954 143.649C369.076 145.55 368.193 147.422 367.312 149.256L289.648 187.023" stroke="#6B4B4B" stroke-width="35.3878" stroke-linejoin="round"/>
<path d="M369.954 143.649C369.076 145.55 368.193 147.422 367.312 149.256L289.648 187.023" stroke="#6B4B4B" stroke-width="2.02976" stroke-linejoin="round"/>
<path d="M372.505 138C371.664 139.906 370.811 141.791 369.954 143.649L289.648 187.023" stroke="#6B4B4B" stroke-width="36.0278" stroke-linejoin="round"/>
<path d="M372.505 138C371.664 139.906 370.811 141.791 369.954 143.649L289.648 187.023" stroke="#6B4B4B" stroke-width="2.06579" stroke-linejoin="round"/>
<path d="M374.954 132.306C374.153 134.219 373.335 136.119 372.505 138L289.648 187.023" stroke="#6B4B4B" stroke-width="36.6647" stroke-linejoin="round"/>
<path d="M374.954 132.306C374.153 134.219 373.335 136.119 372.505 138L289.648 187.023" stroke="#6B4B4B" stroke-width="2.09471" stroke-linejoin="round"/>
<path d="M377.288 126.564C376.532 128.485 375.752 130.402 374.954 132.306L289.648 187.023" stroke="#6B4B4B" stroke-width="37.2917" stroke-linejoin="round"/>
<path d="M377.288 126.564C376.532 128.485 375.752 130.402 374.954 132.306L289.648 187.023" stroke="#6B4B4B" stroke-width="2.1152" stroke-linejoin="round"/>
<path d="M379.489 120.769C378.783 122.701 378.048 124.635 377.288 126.564L289.648 187.023" stroke="#6B4B4B" stroke-width="37.9024" stroke-linejoin="round"/>
<path d="M379.489 120.769C378.783 122.701 378.048 124.635 377.288 126.564L289.648 187.023" stroke="#6B4B4B" stroke-width="2.12599" stroke-linejoin="round"/>
<path d="M383.758 107.723C382.54 112.002 381.092 116.379 379.489 120.769L289.648 187.023" stroke="#6B4B4B" stroke-width="38.7764" stroke-linejoin="round"/>
<path d="M383.758 107.723C382.54 112.002 381.092 116.379 379.489 120.769L289.648 187.023" stroke="#6B4B4B" stroke-width="2.12733" stroke-linejoin="round"/>
<path d="M386.803 94.3433C386.116 98.6171 385.07 103.113 383.758 107.723L289.648 187.023" stroke="#6B4B4B" stroke-width="39.7733" stroke-linejoin="round"/>
<path d="M386.803 94.3433C386.116 98.6171 385.07 103.113 383.758 107.723L289.648 187.023" stroke="#6B4B4B" stroke-width="2.12161" stroke-linejoin="round"/>
<path d="M387.613 80.6672C387.909 84.8249 387.592 89.4379 386.803 94.3433L289.648 187.023" stroke="#6B4B4B" stroke-width="40.4805" stroke-linejoin="round"/>
<path d="M387.613 80.6672C387.909 84.8249 387.592 89.4379 386.803 94.3433L289.648 187.023" stroke="#6B4B4B" stroke-width="2.11058" stroke-linejoin="round"/>
<path d="M384.367 67.3779C385.295 69.817 386.099 72.3786 386.762 75.0688C387.194 76.8205 387.472 78.6925 387.613 80.6671C388.406 91.8095 289.648 187.023 289.648 187.023" stroke="#6B4B4B" stroke-width="40.9197" stroke-linejoin="round"/>
<path d="M384.367 67.3779C385.295 69.817 386.099 72.3786 386.762 75.0688C387.194 76.8205 387.472 78.6925 387.613 80.6671C388.406 91.8095 289.648 187.023 289.648 187.023" stroke="#6B4B4B" stroke-width="2.09471" stroke-linejoin="round"/>
<path d="M378.125 55.1797C380.552 58.8596 382.667 62.9134 384.367 67.378L289.648 187.023" stroke="#6B4B4B" stroke-width="41.1124" stroke-linejoin="round"/>
<path d="M378.125 55.1797C380.552 58.8596 382.667 62.9134 384.367 67.378L289.648 187.023" stroke="#6B4B4B" stroke-width="2.0745" stroke-linejoin="round"/>
<path d="M369.403 44.6096C372.58 47.7353 375.53 51.2436 378.125 55.1797L289.648 187.023" stroke="#6B4B4B" stroke-width="41.0803" stroke-linejoin="round"/>
<path d="M369.403 44.6096C372.58 47.7353 375.53 51.2436 378.125 55.1797L289.648 187.023" stroke="#6B4B4B" stroke-width="2.05042" stroke-linejoin="round"/>
<path d="M358.767 35.9578C362.463 38.4526 366.058 41.319 369.403 44.6096L289.648 187.023" stroke="#6B4B4B" stroke-width="40.8448" stroke-linejoin="round"/>
<path d="M358.767 35.9578C362.463 38.4526 366.058 41.319 369.403 44.6096L289.648 187.023" stroke="#6B4B4B" stroke-width="2.02296" stroke-linejoin="round"/>
<path d="M346.829 29.2019C350.802 31.0767 354.841 33.3076 358.767 35.9577L289.648 187.022" stroke="#6B4B4B" stroke-width="40.4276" stroke-linejoin="round"/>
<path d="M346.829 29.2019C350.802 31.0767 354.841 33.3076 358.767 35.9577L289.648 187.022" stroke="#6B4B4B" stroke-width="1.9926" stroke-linejoin="round"/>
<path d="M334.062 24.178C338.069 25.4693 342.408 27.115 346.829 29.2019L289.648 187.022" stroke="#6B4B4B" stroke-width="39.8503" stroke-linejoin="round"/>
<path d="M334.062 24.178C338.069 25.4693 342.408 27.115 346.829 29.2019L289.648 187.022" stroke="#6B4B4B" stroke-width="1.95982" stroke-linejoin="round"/>
<path d="M320.771 20.7676C324.299 21.4412 328.906 22.5162 334.062 24.178L289.648 187.023" stroke="#6B4B4B" stroke-width="39.1345" stroke-linejoin="round"/>
<path d="M320.771 20.7676C324.299 21.4412 328.906 22.5162 334.062 24.178L289.648 187.023" stroke="#6B4B4B" stroke-width="1.92511" stroke-linejoin="round"/>
<path d="M307.142 19.198C310.71 19.3963 313.384 19.6924 314.762 19.8385C315.952 19.9646 318.038 20.2456 320.771 20.7676C337.206 23.9062 289.648 187.023 289.648 187.023" stroke="#6B4B4B" stroke-width="38.3017" stroke-linejoin="round"/>
<path d="M307.142 19.198C310.71 19.3963 313.384 19.6924 314.762 19.8385C315.952 19.9646 318.038 20.2456 320.771 20.7676C337.206 23.9062 289.648 187.023 289.648 187.023" stroke="#6B4B4B" stroke-width="1.88895" stroke-linejoin="round"/>
<path d="M293.419 19.1831C298.67 18.8895 303.398 18.99 307.142 19.1981L289.648 187.023" stroke="#6B4B4B" stroke-width="37.3736" stroke-linejoin="round"/>
<path d="M293.419 19.1831C298.67 18.8895 303.398 18.99 307.142 19.1981L289.648 187.023" stroke="#6B4B4B" stroke-width="1.85182" stroke-linejoin="round"/>
<path d="M279.8 20.8393C284.52 19.9227 289.143 19.4222 293.419 19.1831L289.648 187.023" stroke="#6B4B4B" stroke-width="36.3717" stroke-linejoin="round"/>
<path d="M279.8 20.8393C284.52 19.9227 289.143 19.4222 293.419 19.1831L289.648 187.023" stroke="#6B4B4B" stroke-width="1.81422" stroke-linejoin="round"/>
<path d="M266.612 24.5904C270.958 22.8992 275.421 21.6901 279.8 20.8394L289.648 187.023" stroke="#6B4B4B" stroke-width="35.3177" stroke-linejoin="round"/>
<path d="M266.612 24.5904C270.958 22.8992 275.421 21.6901 279.8 20.8394L289.648 187.023" stroke="#6B4B4B" stroke-width="1.77661" stroke-linejoin="round"/>
<path d="M254.494 30.9751C258.302 28.3194 262.402 26.2287 266.612 24.5903L289.648 187.023" stroke="#6B4B4B" stroke-width="34.233" stroke-linejoin="round"/>
<path d="M254.494 30.9751C258.302 28.3194 262.402 26.2287 266.612 24.5903L289.648 187.023" stroke="#6B4B4B" stroke-width="1.73948" stroke-linejoin="round"/>
<path d="M244.48 40.2994C247.441 36.6027 250.833 33.5279 254.494 30.9751L289.648 187.023" stroke="#6B4B4B" stroke-width="33.1393" stroke-linejoin="round"/>
<path d="M244.48 40.2994C247.441 36.6027 250.833 33.5279 254.494 30.9751L289.648 187.023" stroke="#6B4B4B" stroke-width="1.70332" stroke-linejoin="round"/>
<path d="M237.552 52.0998C239.417 47.5934 241.768 43.6855 244.48 40.2993L289.648 187.023" stroke="#6B4B4B" stroke-width="32.0583" stroke-linejoin="round"/>
<path d="M237.552 52.0998C239.417 47.5934 241.768 43.6855 244.48 40.2993L289.648 187.023" stroke="#6B4B4B" stroke-width="1.66861" stroke-linejoin="round"/>
<path d="M234.033 65.3295C234.498 61.9304 235.21 58.7046 236.207 55.7107C236.622 54.4662 237.071 53.263 237.552 52.0997C253.763 12.931 289.648 187.022 289.648 187.022" stroke="#6B4B4B" stroke-width="31.0113" stroke-linejoin="round"/>
<path d="M234.033 65.3295C234.498 61.9304 235.21 58.7046 236.207 55.7107C236.622 54.4662 237.071 53.263 237.552 52.0997C253.763 12.931 289.648 187.022 289.648 187.022" stroke="#6B4B4B" stroke-width="1.63584" stroke-linejoin="round"/>
<path d="M233.366 79.0284C233.246 74.2619 233.44 69.6554 234.033 65.3296L289.648 187.023" stroke="#6B4B4B" stroke-width="30.0202" stroke-linejoin="round"/>
<path d="M233.366 79.0284C233.246 74.2619 233.44 69.6554 234.033 65.3296L289.648 187.023" stroke="#6B4B4B" stroke-width="1.60547" stroke-linejoin="round"/>
<path d="M234.458 92.7086C233.865 88.0745 233.478 83.4816 233.366 79.0283L289.648 187.022" stroke="#6B4B4B" stroke-width="29.1064" stroke-linejoin="round"/>
<path d="M234.458 92.7086C233.865 88.0745 233.478 83.4816 233.366 79.0283L289.648 187.022" stroke="#6B4B4B" stroke-width="1.57801" stroke-linejoin="round"/>
<path d="M236.714 106.249C235.808 101.757 235.036 97.2134 234.458 92.7087L289.648 187.023" stroke="#6B4B4B" stroke-width="28.2915" stroke-linejoin="round"/>
<path d="M236.714 106.249C235.808 101.757 235.036 97.2134 234.458 92.7087L289.648 187.023" stroke="#6B4B4B" stroke-width="1.55393" stroke-linejoin="round"/>
<path d="M239.805 119.625C238.682 115.281 237.63 110.791 236.714 106.249L289.648 187.023" stroke="#6B4B4B" stroke-width="27.5971" stroke-linejoin="round"/>
<path d="M239.805 119.625C238.682 115.281 237.63 110.791 236.714 106.249L289.648 187.023" stroke="#6B4B4B" stroke-width="1.53372" stroke-linejoin="round"/>
<path d="M243.543 132.835C242.268 128.67 240.996 124.229 239.805 119.625L289.648 187.023" stroke="#6B4B4B" stroke-width="27.0449" stroke-linejoin="round"/>
<path d="M243.543 132.835C242.268 128.67 240.996 124.229 239.805 119.625L289.648 187.023" stroke="#6B4B4B" stroke-width="1.51785" stroke-linejoin="round"/>
<path d="M247.819 145.881C246.466 142.004 245.002 137.6 243.543 132.835L289.648 187.023" stroke="#6B4B4B" stroke-width="26.6563" stroke-linejoin="round"/>
<path d="M247.819 145.881C246.466 142.004 245.002 137.6 243.543 132.835L289.648 187.023" stroke="#6B4B4B" stroke-width="1.50682" stroke-linejoin="round"/>
<path d="M252.598 158.751C251.45 155.85 249.746 151.4 247.819 145.881L289.648 187.023" stroke="#6B4B4B" stroke-width="26.4531" stroke-linejoin="round"/>
<path d="M252.598 158.751C251.45 155.85 249.746 151.4 247.819 145.881L289.648 187.023" stroke="#6B4B4B" stroke-width="1.5011" stroke-linejoin="round"/>
<path d="M253.772 162.799C253.994 162.6 254.122 162.496 254.122 162.496C254.122 162.496 253.551 161.157 252.598 158.751L289.648 187.023" stroke="#6B4B4B" stroke-width="26.4546" stroke-linejoin="round"/>
<path d="M253.772 162.799C253.994 162.6 254.122 162.496 254.122 162.496C254.122 162.496 253.551 161.157 252.598 158.751L289.648 187.023" stroke="#6B4B4B" stroke-width="1.49963" stroke-linejoin="round"/>
<path d="M250.725 166.11C251.987 164.468 253.196 163.314 253.772 162.799L289.648 187.023" stroke="#6B4B4B" stroke-width="26.6575" stroke-linejoin="round"/>
<path d="M250.725 166.11C251.987 164.468 253.196 163.314 253.772 162.799L289.648 187.023" stroke="#6B4B4B" stroke-width="1.49963" stroke-linejoin="round"/>
<path d="M248.342 169.925C249.05 168.472 249.899 167.186 250.725 166.11L289.648 187.023" stroke="#6B4B4B" stroke-width="27.0281" stroke-linejoin="round"/>
<path d="M248.342 169.925C249.05 168.472 249.899 167.186 250.725 166.11L289.648 187.023" stroke="#6B4B4B" stroke-width="1.49963" stroke-linejoin="round"/>
<path d="M246.903 174.181C247.193 172.649 247.711 171.221 248.342 169.925L289.648 187.022" stroke="#6B4B4B" stroke-width="27.5247" stroke-linejoin="round"/>
<path d="M246.903 174.181C247.193 172.649 247.711 171.221 248.342 169.925L289.648 187.022" stroke="#6B4B4B" stroke-width="1.49963" stroke-linejoin="round"/>
<path d="M246.776 178.666C246.562 177.099 246.635 175.596 246.903 174.181L289.648 187.022" stroke="#6B4B4B" stroke-width="28.1052" stroke-linejoin="round"/>
<path d="M246.776 178.666C246.562 177.099 246.635 175.596 246.903 174.181L289.648 187.022" stroke="#6B4B4B" stroke-width="1.49963" stroke-linejoin="round"/>
<path d="M248.078 182.96C247.377 181.489 246.964 180.052 246.776 178.666L289.648 187.023" stroke="#6B4B4B" stroke-width="28.7276" stroke-linejoin="round"/>
<path d="M248.078 182.96C247.377 181.489 246.964 180.052 246.776 178.666L289.648 187.023" stroke="#6B4B4B" stroke-width="1.49963" stroke-linejoin="round"/>
<path d="M250.503 186.746C249.465 185.466 248.669 184.201 248.078 182.96L289.648 187.023" stroke="#6B4B4B" stroke-width="29.3501" stroke-linejoin="round"/>
<path d="M250.503 186.746C249.465 185.466 248.669 184.201 248.078 182.96L289.648 187.023" stroke="#6B4B4B" stroke-width="1.49963" stroke-linejoin="round"/>
<path d="M253.63 189.983C253.341 189.721 253.052 189.452 252.762 189.176C251.907 188.362 251.157 187.551 250.503 186.745C240.076 173.898 289.648 187.023 289.648 187.023" stroke="#6B4B4B" stroke-width="29.9306" stroke-linejoin="round"/>
<path d="M253.63 189.983C253.341 189.721 253.052 189.452 252.762 189.176C251.907 188.362 251.157 187.551 250.503 186.745C240.076 173.898 289.648 187.023 289.648 187.023" stroke="#6B4B4B" stroke-width="1.49963" stroke-linejoin="round"/>
<path d="M257.11 192.843C255.955 191.991 254.795 191.04 253.63 189.983L289.648 187.023" stroke="#6B4B4B" stroke-width="30.4271" stroke-linejoin="round"/>
<path d="M257.11 192.843C255.955 191.991 254.795 191.04 253.63 189.983L289.648 187.023" stroke="#6B4B4B" stroke-width="1.49963" stroke-linejoin="round"/>
<path d="M260.884 195.3C259.633 194.591 258.374 193.776 257.11 192.843L289.648 187.023" stroke="#6B4B4B" stroke-width="30.7978" stroke-linejoin="round"/>
<path d="M260.884 195.3C259.633 194.591 258.374 193.776 257.11 192.843L289.648 187.023" stroke="#6B4B4B" stroke-width="1.49963" stroke-linejoin="round"/>
<path d="M264.941 197.251C263.598 196.717 262.245 196.072 260.884 195.3L289.648 187.023" stroke="#6B4B4B" stroke-width="31.0006" stroke-linejoin="round"/>
<path d="M264.941 197.251C263.598 196.717 262.245 196.072 260.884 195.3L289.648 187.023" stroke="#6B4B4B" stroke-width="1.49963" stroke-linejoin="round"/>
<path d="M271.925 199.111C269.633 198.783 267.303 198.19 264.941 197.251L289.648 187.023" stroke="#6B4B4B" stroke-width="31.1329" stroke-linejoin="round"/>
<path d="M271.925 199.111C269.633 198.783 267.303 198.19 264.941 197.251L289.648 187.023" stroke="#6B4B4B" stroke-width="1.49963" stroke-linejoin="round"/>
<path d="M279.153 199.341C276.793 199.506 274.381 199.461 271.925 199.111L289.648 187.023" stroke="#6B4B4B" stroke-width="31.3973" stroke-linejoin="round"/>
<path d="M279.153 199.341C276.793 199.506 274.381 199.461 271.925 199.111L289.648 187.023" stroke="#6B4B4B" stroke-width="1.49963" stroke-linejoin="round"/>
<path d="M286.309 198.262C283.987 198.775 281.598 199.171 279.153 199.341L289.648 187.023" stroke="#6B4B4B" stroke-width="31.8059" stroke-linejoin="round"/>
<path d="M286.309 198.262C283.987 198.775 281.598 199.171 279.153 199.341L289.648 187.023" stroke="#6B4B4B" stroke-width="1.49963" stroke-linejoin="round"/>
<path d="M293.31 196.404C291.056 197.07 288.719 197.729 286.309 198.262L289.648 187.023" stroke="#6B4B4B" stroke-width="32.2145" stroke-linejoin="round"/>
<path d="M293.31 196.404C291.056 197.07 288.719 197.729 286.309 198.262L289.648 187.023" stroke="#6B4B4B" stroke-width="1.49963" stroke-linejoin="round"/>
<path d="M300.268 194.387C298.054 194.968 295.73 195.69 293.31 196.404L289.648 187.023" stroke="#6B4B4B" stroke-width="32.4789" stroke-linejoin="round"/>
<path d="M300.268 194.387C298.054 194.968 295.73 195.69 293.31 196.404L289.648 187.023" stroke="#6B4B4B" stroke-width="1.49963" stroke-linejoin="round"/>
<path d="M302.233 210.373C306.925 210.373 310.728 206.569 310.728 201.878C310.728 197.186 306.925 193.383 302.233 193.383C297.542 193.383 293.739 197.186 293.739 201.878C293.739 206.569 297.542 210.373 302.233 210.373Z" fill="#6B4B4B"/>
<path fill-rule="evenodd" clip-rule="evenodd" d="M263.071 255.649C257.188 259.243 282.623 270.515 277.669 275.294C273.016 279.922 264.784 278.167 257.286 276.402C249.618 274.435 249.081 326.209 281.649 326.209C314.217 326.209 316.38 317.728 314.581 314.804C310.807 308.672 295.796 307.611 292.863 300.459C290.067 293.641 325.618 274.732 317.94 246.342C316.152 239.731 302.585 267.248 297.855 262.69C291.922 256.733 269.182 252.033 263.071 255.649Z" fill="white"/>
<path fill-rule="evenodd" clip-rule="evenodd" d="M279.483 34.205C393.337 41.0513 347.636 135.608 319.662 151.947C329.186 152.485 336.786 150.694 336.537 158.833C336.321 165.918 320.242 172.304 320.242 172.304C320.242 172.304 340.664 179.358 333.406 192.389C325.712 206.206 332.539 184.982 305.295 181.618C294.028 180.227 282.532 179.872 269.891 184.28C254.728 189.569 240.124 180.221 246.627 169.506C253.129 158.791 189.712 28.807 279.483 34.205Z" fill="white"/>
<path fill-rule="evenodd" clip-rule="evenodd" d="M295.803 90.4624C312.156 85.2306 315.939 93.3906 312.688 111.056C309.437 128.721 289.282 168.969 278.554 166.741C267.975 164.544 265.743 141.286 266.719 122.758C267.643 105.238 277.92 96.0049 295.803 90.4624Z" fill="white"/>
<path fill-rule="evenodd" clip-rule="evenodd" d="M246.497 86.4909C257.174 95.2501 258.977 106.555 259.906 124.136C260.775 140.591 261.484 164.428 256.455 163.102C252.105 161.955 235.714 117.731 237.429 95.236C239.149 72.6892 239.026 80.2691 246.497 86.4909Z" fill="white"/>
<path fill-rule="evenodd" clip-rule="evenodd" d="M321.793 86.8703C322.674 74.3891 264.02 90.7191 262.445 107.564C261.149 121.43 320.913 99.325 321.793 86.8703Z" fill="black"/>
<path fill-rule="evenodd" clip-rule="evenodd" d="M262.445 107.563C263.866 94.5507 232.777 62.2062 230.181 72.3878C227.842 81.5604 261.134 119.573 262.445 107.563Z" fill="black"/>
<path fill-rule="evenodd" clip-rule="evenodd" d="M281.819 116.316C265.058 113.31 270.656 143.597 279.132 145.374C287.319 147.091 296.481 118.946 281.819 116.316Z" fill="black"/>
<path fill-rule="evenodd" clip-rule="evenodd" d="M248.298 108.337C237.747 105.658 245.036 135.83 252.857 137.7C258.38 139.02 259.09 111.078 248.298 108.337Z" fill="black"/>
<path fill-rule="evenodd" clip-rule="evenodd" d="M369.355 195.29C369.355 195.29 369.691 199.226 369.691 199.226C369.692 199.226 372.183 196.712 372.183 196.711C372.182 196.709 368.082 193.919 368.082 193.919L369.355 195.29Z" fill="#C84B24"/>
<path fill-rule="evenodd" clip-rule="evenodd" d="M329.887 159.686C319.728 155.185 303.566 153.833 286.942 156.885C268.377 160.293 197.201 155.932 184.17 160.164C160.078 167.989 163.559 213.117 184.002 222.174C197.076 227.965 263.811 206.814 274.776 206.05C282.096 205.54 276.554 214.292 282.655 225.523C292.136 242.975 320.53 240.773 332.361 228.989C344.284 217.113 330.259 199.985 330.259 199.985L335.967 199.557C335.967 199.557 333.817 195.709 339.872 185.96C346.781 174.833 340.278 164.289 329.887 159.686Z" fill="#717171"/>
<path fill-rule="evenodd" clip-rule="evenodd" d="M231.827 176.439C206.116 170.692 275.832 167.273 310.939 167.877C331.353 168.229 330.226 177.299 324.316 177.709C310.544 178.666 243.657 179.084 231.827 176.439Z" fill="white"/>
<path fill-rule="evenodd" clip-rule="evenodd" d="M171.601 161.106C199.713 158.465 207.48 222.22 176.355 224.553C145.231 226.885 139.922 164.082 171.601 161.106Z" fill="#717171"/>
<path fill-rule="evenodd" clip-rule="evenodd" d="M201.737 169.682C198.904 174.71 189.443 174.333 186.863 172.001C181.124 166.813 185.932 148.863 192.296 148.119C198.661 147.374 205.376 163.225 201.737 169.682Z" fill="#717171"/>
<path fill-rule="evenodd" clip-rule="evenodd" d="M193.458 171.657C180.934 173.197 182.839 210.674 196.606 209.642C210.373 208.611 205.392 170.189 193.458 171.657Z" fill="white"/>
<path fill-rule="evenodd" clip-rule="evenodd" d="M169.928 174.925C157.403 176.465 158.276 212.214 172.043 211.182C185.81 210.15 181.862 173.457 169.928 174.925Z" fill="white"/>
<path d="M326.067 236.153C334.352 235.532 340.578 228.298 339.957 220.012C339.336 211.727 332.102 205.501 323.816 206.122C315.53 206.743 309.305 213.977 309.926 222.263C310.547 230.548 317.781 236.774 326.067 236.153Z" stroke="#6B4B4B" stroke-width="24" stroke-linejoin="round"/>
<path d="M326.067 236.153C334.352 235.532 340.578 228.298 339.957 220.012C339.336 211.727 332.102 205.501 323.816 206.122C315.53 206.743 309.305 213.977 309.926 222.263C310.547 230.548 317.781 236.774 326.067 236.153Z" stroke="#6B4B4B" stroke-width="2" stroke-linejoin="round"/>
<path d="M311.504 225.909C318.127 225.413 323.215 221.124 322.857 216.341C322.498 211.558 316.828 208.075 310.205 208.572C303.582 209.068 298.493 213.356 298.852 218.14C299.21 222.923 304.881 226.405 311.504 225.909Z" stroke="#6B4B4B" stroke-width="24" stroke-linejoin="round"/>
<path d="M311.504 225.909C318.127 225.413 323.215 221.124 322.857 216.341C322.498 211.558 316.828 208.075 310.205 208.572C303.582 209.068 298.493 213.356 298.852 218.14C299.21 222.923 304.881 226.405 311.504 225.909Z" stroke="#6B4B4B" stroke-width="2" stroke-linejoin="round"/>
<path fill-rule="evenodd" clip-rule="evenodd" d="M326.067 236.153C334.352 235.532 340.578 228.298 339.957 220.012C339.336 211.727 332.102 205.501 323.816 206.122C315.53 206.743 309.305 213.977 309.926 222.263C310.547 230.548 317.781 236.774 326.067 236.153Z" fill="#E3A7A7"/>
<path fill-rule="evenodd" clip-rule="evenodd" d="M321.248 206.693C329.139 204.683 336.099 234.434 322.282 233.104C308.465 231.775 303.607 227.116 304.514 216.934C305.422 206.752 313.358 208.703 321.248 206.693Z" fill="white"/>
<path fill-rule="evenodd" clip-rule="evenodd" d="M311.504 225.909C318.127 225.413 323.215 221.124 322.857 216.341C322.498 211.558 316.828 208.075 310.205 208.572C303.582 209.068 298.493 213.356 298.852 218.14C299.21 222.923 304.881 226.405 311.504 225.909Z" fill="#E3A7A7"/>
<path d="M260.686 233.239C268.162 232.679 273.748 225.733 273.149 217.741C272.55 209.749 265.991 203.713 258.515 204.273C251.039 204.834 245.453 211.78 246.052 219.772C246.651 227.763 253.21 233.8 260.686 233.239Z" stroke="#6B4B4B" stroke-width="20.6371" stroke-linejoin="round"/>
<path d="M260.686 233.239C268.162 232.679 273.748 225.733 273.149 217.741C272.55 209.749 265.991 203.713 258.515 204.273C251.039 204.834 245.453 211.78 246.052 219.772C246.651 227.763 253.21 233.8 260.686 233.239Z" stroke="#6B4B4B" stroke-width="2" stroke-linejoin="round"/>
<path fill-rule="evenodd" clip-rule="evenodd" d="M260.686 233.239C268.162 232.679 273.748 225.733 273.149 217.741C272.55 209.749 265.991 203.713 258.515 204.273C251.039 204.834 245.453 211.78 246.052 219.772C246.651 227.763 253.21 233.8 260.686 233.239Z" fill="#E3A7A7"/>
<path fill-rule="evenodd" clip-rule="evenodd" d="M255.184 206.603C265.567 206.298 263.44 233.286 256.041 230.663C239.519 224.806 244.339 206.922 255.184 206.603Z" fill="white"/>
<path fill-rule="evenodd" clip-rule="evenodd" d="M376.421 195.809C376.421 195.809 376.425 195.809 376.426 195.809C376.426 195.81 376.426 195.81 376.425 195.81C376.425 195.81 376.421 195.809 376.421 195.809Z" fill="white"/>
<path fill-rule="evenodd" clip-rule="evenodd" d="M201.737 190.068L140.066 120.938L151.956 159.949L36.0628 139.044L78.9328 178.648L0.219482 205.17L82.9317 220.043L45.5515 265.661L156.555 227.304L151.503 267.584L201.737 190.068Z" fill="#F1FF78"/>
</svg>
