<svg width="212" height="285" viewBox="0 0 212 285" fill="none" xmlns="http://www.w3.org/2000/svg">
<path fill-rule="evenodd" clip-rule="evenodd" d="M23.8078 3.54828C60.5958 -12.7634 83.8455 29.7243 89.8393 78.6667C93.9036 111.853 97.1089 127.656 103.773 128.342C110.436 129.028 130.154 -14.708 184.949 4.15407C228.52 19.1524 209.689 65.075 186.161 102.898C171.933 125.77 165.673 144.558 165.673 144.558C165.673 144.558 187.978 145.153 190.313 162.78C204.686 164.439 210.831 177.086 210.831 189.716C210.831 223.585 199.541 302.612 109.225 280.033C52.7769 302.612 15.4876 220.241 19.5139 180.244C21.3846 161.661 45.6164 151.362 45.6164 151.362C45.6164 151.362 -40.4064 32.0206 23.8078 3.54828Z" fill="#6B4B4B"/>
<path fill-rule="evenodd" clip-rule="evenodd" d="M41.4873 201.006C41.4873 201.006 109.225 246.164 131.804 201.006C154.383 155.847 86.6456 167.137 75.356 155.847C64.0665 144.558 35.2466 168.329 30.1977 178.427C18.9081 201.006 53.3827 290.717 109.831 268.137C150.445 279.124 163.945 275.052 180.294 259.271C201.268 239.026 198.027 213.507 198.027 213.507C198.027 213.507 164.579 257.654 143.396 239.803C138.815 235.943 137.148 232.519 137.697 232.69C138.519 232.639 121.211 241.538 110.133 230.634C64.9752 230.634 41.4873 201.006 41.4873 201.006Z" fill="#E3A7A7"/>
<path fill-rule="evenodd" clip-rule="evenodd" d="M199.542 189.716C197.343 200.79 176.959 235.281 154.383 234.875C137.559 234.572 147.499 211.607 153.708 200.469C141.138 210.231 140.213 226.947 128.913 227.238C125.151 227.335 120.087 227.573 121.517 223.504C145.27 207.852 150.156 170.616 139.212 165.144C133.154 162.115 138.37 161.257 138.37 161.257C138.37 161.257 151.328 152.725 161.02 152.725C170.713 152.725 178.272 155.696 181.617 165.144C174.577 170.293 171.622 176.2 171.622 176.2C171.622 176.2 186.132 167.137 192.539 170.96C199.348 175.022 201.662 179.037 199.542 189.716Z" fill="#E3A7A7"/>
<path fill-rule="evenodd" clip-rule="evenodd" d="M28.0483 15.0583C-20.4153 35.0495 40.9904 135.832 52.28 147.121C82.5697 136.823 75.3559 155.847 109.225 155.847C114.024 155.847 121.55 156.852 126.435 157.866C138.868 148.832 154.383 144.558 154.383 144.558C154.383 144.558 162.733 121.339 177.074 97.4463C195.973 65.9572 215.239 33.2321 186.766 16.2699C139.954 -11.6183 113.465 144.233 104.378 144.092C95.2914 143.952 87.4161 116.832 81.9639 81.6957C76.0904 43.8437 56.757 3.21597 28.0483 15.0583Z" fill="#E3A7A7"/>
<path fill-rule="evenodd" clip-rule="evenodd" d="M187.978 176.2C206.152 181.046 180.708 216.182 162.534 211.941C144.361 207.701 169.804 171.353 187.978 176.2Z" fill="#FFDBCE"/>
<path fill-rule="evenodd" clip-rule="evenodd" d="M172.833 164.69C172.833 164.69 164.958 170.142 158.9 179.229C152.842 188.315 145.572 198.008 145.572 198.008C145.572 198.008 151.63 185.287 150.419 176.2C149.207 167.113 149.207 167.113 149.207 167.113C149.207 167.113 156.477 158.632 161.929 158.632C169.804 158.632 172.833 164.69 172.833 164.69Z" fill="#FFDBCE"/>
<path fill-rule="evenodd" clip-rule="evenodd" d="M39.5583 181.046C42.5873 192.556 80.1465 210.73 97.7146 206.489C115.283 202.249 139.514 180.44 123.764 174.382C108.013 168.324 84.3871 168.324 74.6944 170.142C65.0017 171.959 77.1176 160.449 71.0596 157.42C65.0017 154.391 36.5294 169.536 39.5583 181.046Z" fill="#FFDBCE"/>
<path fill-rule="evenodd" clip-rule="evenodd" d="M32.8947 25.9626C55.8312 20.1161 62.8202 47.3002 68.0307 72.6088C72.2713 93.2057 67.5653 107.889 60.1554 109.562C41.3758 113.803 1.99919 33.8379 32.8947 25.9626Z" fill="#FFDBCE"/>
<path fill-rule="evenodd" clip-rule="evenodd" d="M181.314 24.751C192.732 29.3724 194.477 49.5198 181.92 68.3682C169.167 87.5105 159.538 107.952 147.39 105.927C121.947 101.687 155.871 14.4525 181.314 24.751Z" fill="#FFDBCE"/>
<path fill-rule="evenodd" clip-rule="evenodd" d="M97.9351 223.585C97.9351 223.585 121.505 230.193 118.312 253.741C128.445 239.73 116.494 224.663 116.494 224.663L97.9351 223.585Z" fill="#6B4B4B"/>
</svg>
